M48
; DRILL file {KiCad 9.0.7} date 2026-03-29T21:17:29+0530
; FORMAT={-:-/ absolute / metric / decimal}
; #@! TF.CreationDate,2026-03-29T21:17:29+05:30
; #@! TF.GenerationSoftware,Kicad,Pcbnew,9.0.7
; #@! TF.FileFunction,NonPlated,1,2,NPTH
FMAT,2
METRIC
; #@! TA.AperFunction,NonPlated,NPTH,ComponentDrill
T1C0.500
; #@! TA.AperFunction,NonPlated,NPTH,ComponentDrill
T2C1.700
; #@! TA.AperFunction,NonPlated,NPTH,ComponentDrill
T3C2.100
; #@! TA.AperFunction,NonPlated,NPTH,ComponentDrill
T4C3.400
%
G90
G05
T1
X147.533Y-100.265
X147.533Y-101.115
X147.533Y-101.965
X147.533Y-62.736
X147.533Y-63.586
X147.533Y-64.436
X147.536Y-81.501
X147.536Y-82.351
X147.536Y-83.201
X149.033Y-100.265
X149.033Y-101.115
X149.033Y-101.965
X149.033Y-62.736
X149.033Y-63.586
X149.033Y-64.436
X149.036Y-81.501
X149.036Y-82.351
X149.036Y-83.201
T2
X39.483Y-143.54
X47.91Y-136.469
X53.836Y-50.728
X53.836Y-69.778
X53.836Y-88.828
X53.836Y-107.878
X60.431Y-130.391
X64.836Y-50.728
X64.836Y-69.778
X64.836Y-88.828
X64.836Y-107.878
X71.264Y-128.481
X72.886Y-48.823
X72.886Y-67.873
X72.886Y-86.923
X72.886Y-105.973
X83.886Y-48.823
X83.886Y-67.873
X83.886Y-86.923
X83.886Y-105.973
X91.936Y-44.06
X91.936Y-63.11
X91.936Y-82.16
X91.936Y-101.21
X102.936Y-44.06
X102.936Y-63.11
X102.936Y-82.16
X102.936Y-101.21
X110.986Y-48.823
X110.986Y-67.873
X110.986Y-86.967
X110.986Y-106.017
X121.986Y-48.823
X121.986Y-67.873
X121.986Y-86.967
X121.986Y-106.017
X130.036Y-53.585
X130.036Y-72.635
X130.036Y-91.685
X130.036Y-110.735
X141.036Y-53.585
X141.036Y-72.635
X141.036Y-91.685
X141.036Y-110.735
X155.399Y-53.59
X155.399Y-72.641
X155.399Y-91.691
X155.399Y-110.74
X166.399Y-53.59
X166.399Y-72.641
X166.399Y-91.691
X166.399Y-110.74
X174.45Y-48.828
X174.45Y-67.878
X174.45Y-86.972
X174.45Y-106.022
X185.45Y-48.828
X185.45Y-67.878
X185.45Y-86.972
X185.45Y-106.022
X193.499Y-44.066
X193.499Y-63.115
X193.499Y-82.165
X193.499Y-101.215
X204.499Y-44.066
X204.499Y-63.115
X204.499Y-82.165
X204.499Y-101.215
X212.549Y-48.828
X212.549Y-67.878
X212.549Y-86.928
X212.549Y-105.978
X223.549Y-48.828
X223.549Y-67.878
X223.549Y-86.928
X223.549Y-105.978
X225.171Y-128.486
X231.599Y-50.733
X231.599Y-69.783
X231.599Y-88.833
X231.599Y-107.883
X236.004Y-130.396
X242.599Y-50.733
X242.599Y-69.783
X242.599Y-88.833
X242.599Y-107.883
X248.526Y-136.475
X256.952Y-143.545
T3
X38.129Y-127.878
X258.192Y-127.071
T4
X43.697Y-140.005
X59.336Y-50.728
X59.336Y-69.778
X59.336Y-88.828
X59.336Y-107.878
X65.848Y-129.436
X78.386Y-48.823
X78.386Y-67.873
X78.386Y-86.923
X78.386Y-105.973
X97.436Y-44.06
X97.436Y-63.11
X97.436Y-82.16
X97.436Y-101.21
X116.486Y-48.823
X116.486Y-67.873
X116.486Y-86.967
X116.486Y-106.017
X135.536Y-53.585
X135.536Y-72.635
X135.536Y-91.685
X135.536Y-110.735
X160.899Y-53.59
X160.899Y-72.641
X160.899Y-91.691
X160.899Y-110.74
X179.95Y-48.828
X179.95Y-67.878
X179.95Y-86.972
X179.95Y-106.022
X198.999Y-44.066
X198.999Y-63.115
X198.999Y-82.165
X198.999Y-101.215
X218.049Y-48.828
X218.049Y-67.878
X218.049Y-86.928
X218.049Y-105.978
X230.588Y-129.441
X237.099Y-50.733
X237.099Y-69.783
X237.099Y-88.833
X237.099Y-107.883
X252.739Y-140.01
M30
