%TF.GenerationSoftware,KiCad,Pcbnew,9.0.7*%
%TF.CreationDate,2026-03-29T21:17:25+05:30*%
%TF.ProjectId,epsilon,65707369-6c6f-46e2-9e6b-696361645f70,rev?*%
%TF.SameCoordinates,Original*%
%TF.FileFunction,Profile,NP*%
%FSLAX46Y46*%
G04 Gerber Fmt 4.6, Leading zero omitted, Abs format (unit mm)*
G04 Created by KiCad (PCBNEW 9.0.7) date 2026-03-29 21:17:25*
%MOMM*%
%LPD*%
G01*
G04 APERTURE LIST*
%TA.AperFunction,Profile*%
%ADD10C,0.050000*%
%TD*%
%TA.AperFunction,Profile*%
%ADD11C,0.100000*%
%TD*%
G04 APERTURE END LIST*
D10*
X169009301Y-119468805D02*
G75*
G02*
X168197766Y-119884513I-811601J584405D01*
G01*
X146277167Y-44831899D02*
X143467167Y-44831899D01*
X146277167Y-44831899D02*
G75*
G02*
X147277101Y-45831899I33J-999901D01*
G01*
X51263513Y-151130899D02*
X34167667Y-151130899D01*
X150279000Y-119884500D02*
X153089000Y-119884500D01*
X219672190Y-136585411D02*
X221891733Y-138828385D01*
X147282863Y-65586402D02*
X147286077Y-80350652D01*
X28071667Y-120269899D02*
G75*
G02*
X27071601Y-119269899I33J1000099D01*
G01*
X147286077Y-84350652D02*
X147282625Y-99114902D01*
X67493684Y-41848556D02*
G75*
G02*
X67008041Y-41974408I-485584J873856D01*
G01*
X27071667Y-98314649D02*
X27071667Y-119269899D01*
X264388500Y-120265500D02*
X268484500Y-120265500D01*
X51969071Y-150839551D02*
X63437940Y-139420747D01*
X212165775Y-40065000D02*
G75*
G02*
X211472678Y-39785820I25J1000000D01*
G01*
X76883977Y-136589810D02*
X74664434Y-138832784D01*
X85914392Y-115126399D02*
X78173167Y-115126399D01*
X229548126Y-41970000D02*
X244910000Y-41970000D01*
X219383000Y-116122000D02*
X219383000Y-135882027D01*
X191591775Y-35302500D02*
X206407225Y-35302500D01*
X67008041Y-41974399D02*
X51646167Y-41974399D01*
X77173167Y-116126399D02*
X77173167Y-135886426D01*
X70469650Y-40195242D02*
G75*
G02*
X70955293Y-40069383I485650J-874058D01*
G01*
X51646167Y-41974399D02*
X48836167Y-41974399D01*
X147277167Y-118888899D02*
G75*
G02*
X146277167Y-119888967I-1000067J-1D01*
G01*
X147282625Y-103114902D02*
X147277166Y-118888899D01*
X85083501Y-39790232D02*
X89455833Y-35586066D01*
X123904933Y-115126399D02*
X109198942Y-115126399D01*
X123904933Y-115126399D02*
G75*
G02*
X124716446Y-115542110I-33J-1000001D01*
G01*
X263388500Y-121265500D02*
X263388500Y-150126500D01*
X124716468Y-40485094D02*
X127546866Y-44416204D01*
X247720000Y-41970000D02*
G75*
G02*
X248720000Y-42970000I0J-1000000D01*
G01*
X104964392Y-35306899D02*
X90148942Y-35306899D01*
X67493684Y-41848556D02*
X70469650Y-40195242D01*
X84390392Y-40069399D02*
X70955293Y-40069399D01*
X211472666Y-39785833D02*
X207100334Y-35581667D01*
X32167667Y-120269899D02*
G75*
G02*
X33167601Y-121269899I33J-999901D01*
G01*
X105657501Y-35586066D02*
X110029833Y-39790232D01*
X143467167Y-119888899D02*
X128358401Y-119888899D01*
X63437940Y-139420747D02*
G75*
G02*
X64143498Y-139129398I705560J-708653D01*
G01*
X128358401Y-119888899D02*
G75*
G02*
X127546900Y-119473180I-1J999899D01*
G01*
X123904933Y-40069399D02*
X110722942Y-40069399D01*
X123904933Y-40069399D02*
G75*
G02*
X124716446Y-40485110I-33J-1000001D01*
G01*
X27071667Y-98314649D02*
G75*
G02*
X28071667Y-97314667I1000033J-51D01*
G01*
X188050334Y-114842833D02*
G75*
G02*
X187357225Y-115121976I-693034J720733D01*
G01*
X46836167Y-97314649D02*
X28071667Y-97314649D01*
X171839699Y-115537695D02*
X169009301Y-119468805D01*
X153089000Y-119884500D02*
X168197766Y-119884500D01*
X109198942Y-115126399D02*
G75*
G02*
X108505832Y-114847233I-42J999899D01*
G01*
X47836167Y-42974399D02*
X47836167Y-96314649D01*
X218383000Y-115122000D02*
G75*
G02*
X219383000Y-116122000I0J-1000000D01*
G01*
X128358401Y-44831899D02*
G75*
G02*
X127546900Y-44416180I-1J999899D01*
G01*
X149279000Y-45827500D02*
G75*
G02*
X150279000Y-44827500I1000000J0D01*
G01*
X232412669Y-139125000D02*
X222602543Y-139125000D01*
X103440392Y-110363899D02*
X91672942Y-110363899D01*
X147277167Y-45831899D02*
X147282864Y-61586764D01*
X104133501Y-110643066D02*
X108505833Y-114847232D01*
X150279000Y-119884500D02*
G75*
G02*
X149279000Y-118884500I0J1000000D01*
G01*
X149284696Y-65582003D02*
X149287910Y-80346253D01*
X263388500Y-150126500D02*
G75*
G02*
X262388500Y-151126500I-1000000J0D01*
G01*
X86607501Y-114847232D02*
X90979833Y-110643066D01*
X268484500Y-97310250D02*
G75*
G02*
X269484550Y-98310250I0J-1000050D01*
G01*
X186526334Y-39785833D02*
G75*
G02*
X185833225Y-40065017I-693134J720833D01*
G01*
X222602543Y-139125000D02*
G75*
G02*
X221891720Y-138828398I57J1000200D01*
G01*
X47836167Y-42974399D02*
G75*
G02*
X48836167Y-41974467I999933J-1D01*
G01*
X210641775Y-115122000D02*
X218383000Y-115122000D01*
X149279000Y-45827500D02*
X149282863Y-61586402D01*
X193115775Y-110359500D02*
X204883225Y-110359500D01*
X103440392Y-110363899D02*
G75*
G02*
X104133524Y-110643042I8J-1000101D01*
G01*
X232412669Y-139125000D02*
G75*
G02*
X233118234Y-139416341I-69J-1000200D01*
G01*
X77173167Y-116126399D02*
G75*
G02*
X78173167Y-115126467I999933J-1D01*
G01*
X64143498Y-139129399D02*
X73953624Y-139129399D01*
X90979833Y-110643066D02*
G75*
G02*
X91672942Y-110363915I693167J-721034D01*
G01*
X245292654Y-151126500D02*
G75*
G02*
X244587078Y-150835170I46J1000200D01*
G01*
X32167667Y-120269899D02*
X28071667Y-120269899D01*
X249720000Y-97310250D02*
G75*
G02*
X248719950Y-96310250I0J1000050D01*
G01*
X229548126Y-41970000D02*
G75*
G02*
X229062477Y-41844168I-26J1000000D01*
G01*
X229062483Y-41844157D02*
X226086517Y-40190843D01*
X104964392Y-35306899D02*
G75*
G02*
X105657505Y-35586062I8J-1000001D01*
G01*
X206407225Y-35302500D02*
G75*
G02*
X207100322Y-35581680I-25J-1000000D01*
G01*
X171839699Y-40480695D02*
G75*
G02*
X172651234Y-40064987I811601J-584405D01*
G01*
X74664434Y-138832784D02*
G75*
G02*
X73953624Y-139129358I-710834J703584D01*
G01*
X172651234Y-40065000D02*
X185833225Y-40065000D01*
X143467167Y-44831899D02*
X128358401Y-44831899D01*
X85083501Y-39790232D02*
G75*
G02*
X84390392Y-40069394I-693101J720832D01*
G01*
X33167667Y-121269899D02*
X33167667Y-150130899D01*
X244910000Y-41970000D02*
X247720000Y-41970000D01*
X171839699Y-40480695D02*
X169009301Y-44411805D01*
X77173167Y-135886426D02*
G75*
G02*
X76883998Y-136589831I-1000167J26D01*
G01*
X192422666Y-110638667D02*
G75*
G02*
X193115775Y-110359524I693034J-720733D01*
G01*
X219672190Y-136585411D02*
G75*
G02*
X219382981Y-135882027I710810J703411D01*
G01*
X149287910Y-84346253D02*
X149284458Y-99110503D01*
X269484500Y-98310250D02*
X269484500Y-119265500D01*
X169009301Y-44411805D02*
G75*
G02*
X168197766Y-44827513I-811601J584405D01*
G01*
X225600874Y-40065000D02*
G75*
G02*
X226086523Y-40190832I26J-1000000D01*
G01*
X263388500Y-121265500D02*
G75*
G02*
X264388500Y-120265500I1000000J0D01*
G01*
X171839699Y-115537695D02*
G75*
G02*
X172651234Y-115121987I811601J-584405D01*
G01*
X210641775Y-115122000D02*
G75*
G02*
X209948678Y-114842820I25J1000000D01*
G01*
X150279000Y-44827500D02*
X153089000Y-44827500D01*
X149284458Y-103110503D02*
X149278999Y-118884500D01*
X146277167Y-119888899D02*
X143467167Y-119888899D01*
X249720000Y-97310250D02*
X268484500Y-97310250D01*
X110722942Y-40069399D02*
G75*
G02*
X110029852Y-39790212I-42J999799D01*
G01*
X248720000Y-42970000D02*
X248720000Y-96310250D01*
X269484500Y-119265500D02*
G75*
G02*
X268484500Y-120265500I-1000000J0D01*
G01*
X212165775Y-40065000D02*
X225600874Y-40065000D01*
X244587096Y-150835152D02*
X233118227Y-139416348D01*
X124716468Y-115542094D02*
X127546866Y-119473204D01*
X47836167Y-96314649D02*
G75*
G02*
X46836167Y-97314667I-1000067J49D01*
G01*
X192422666Y-110638667D02*
X188050334Y-114842833D01*
X190898666Y-35581667D02*
X186526334Y-39785833D01*
X153089000Y-44827500D02*
X168197766Y-44827500D01*
X204883225Y-110359500D02*
G75*
G02*
X205576322Y-110638680I-25J-1000000D01*
G01*
X89455833Y-35586066D02*
G75*
G02*
X90148942Y-35306915I693167J-721034D01*
G01*
X86607501Y-114847232D02*
G75*
G02*
X85914392Y-115126394I-693101J720832D01*
G01*
X172651234Y-115122000D02*
X187357225Y-115122000D01*
X245292654Y-151126500D02*
X262388500Y-151126500D01*
X51969071Y-150839551D02*
G75*
G02*
X51263513Y-151130937I-705571J708551D01*
G01*
X209948666Y-114842833D02*
X205576334Y-110638667D01*
X34167667Y-151130899D02*
G75*
G02*
X33167601Y-150130899I33J1000099D01*
G01*
X190898666Y-35581667D02*
G75*
G02*
X191591775Y-35302483I693134J-720833D01*
G01*
D11*
%TO.C,D213*%
X197299501Y-76762659D02*
X197299501Y-78168343D01*
X198205048Y-78965500D02*
X199793953Y-78965500D01*
X199793952Y-75965501D02*
X198205048Y-75965501D01*
X200699499Y-78168343D02*
X200699499Y-76762659D01*
X197250016Y-76545781D02*
G75*
G02*
X197299501Y-76762658I-450505J-216876D01*
G01*
X197250016Y-76545781D02*
G75*
G02*
X197952789Y-75897204I450515J216877D01*
G01*
X197299501Y-78168343D02*
G75*
G02*
X197250016Y-78385221I-499990J-2D01*
G01*
X197952789Y-79033800D02*
G75*
G02*
X197250016Y-78385221I-252258J431701D01*
G01*
X197952789Y-79033800D02*
G75*
G02*
X198205047Y-78965501I252261J-431710D01*
G01*
X198205048Y-75965501D02*
G75*
G02*
X197952790Y-75897202I3J500009D01*
G01*
X199793953Y-78965500D02*
G75*
G02*
X200046211Y-79033799I-3J-500010D01*
G01*
X200046211Y-75897202D02*
G75*
G02*
X199793952Y-75965501I-252261J431712D01*
G01*
X200046211Y-75897202D02*
G75*
G02*
X200748981Y-76545781I252259J-431698D01*
G01*
X200699499Y-76762659D02*
G75*
G02*
X200748985Y-76545782I499991J-1D01*
G01*
X200748984Y-78385221D02*
G75*
G02*
X200046211Y-79033800I-450514J-216879D01*
G01*
X200748984Y-78385221D02*
G75*
G02*
X200699481Y-78168344I450516J216921D01*
G01*
%TO.C,D322*%
X38921552Y-136958490D02*
X39825109Y-138035307D01*
X40320009Y-134744430D02*
X39102837Y-135765758D01*
X41031200Y-138063890D02*
X42248372Y-137042561D01*
X42429657Y-135849830D02*
X41526101Y-134773014D01*
X38744238Y-136824161D02*
G75*
G02*
X38865696Y-135875588I205707J455723D01*
G01*
X38744238Y-136824161D02*
G75*
G02*
X38921551Y-136958489I-205696J-455708D01*
G01*
X39102837Y-135765758D02*
G75*
G02*
X38865695Y-135875586I-321397J383032D01*
G01*
X39825109Y-138035307D02*
G75*
G02*
X39926607Y-138233253I-383014J-321388D01*
G01*
X40469349Y-134529960D02*
G75*
G02*
X40320011Y-134744433I-470757J168561D01*
G01*
X40469349Y-134529960D02*
G75*
G02*
X41424599Y-134575068I470731J-168551D01*
G01*
X40881861Y-138278359D02*
G75*
G02*
X39926607Y-138233253I-470733J168553D01*
G01*
X40881861Y-138278359D02*
G75*
G02*
X41031200Y-138063891I470717J-168544D01*
G01*
X41526101Y-134773014D02*
G75*
G02*
X41424601Y-134575067I383076J321425D01*
G01*
X42248372Y-137042561D02*
G75*
G02*
X42485515Y-136932737I321396J-383046D01*
G01*
X42606972Y-135984160D02*
G75*
G02*
X42429644Y-135849842I205681J455758D01*
G01*
X42606972Y-135984160D02*
G75*
G02*
X42485515Y-136932733I-205707J-455723D01*
G01*
%TO.C,D208*%
X197299501Y-57712657D02*
X197299501Y-59118341D01*
X198205048Y-59915499D02*
X199793952Y-59915499D01*
X199793952Y-56915500D02*
X198205047Y-56915500D01*
X200699499Y-59118341D02*
X200699499Y-57712657D01*
X197250016Y-57495779D02*
G75*
G02*
X197299519Y-57712656I-450516J-216921D01*
G01*
X197250016Y-57495779D02*
G75*
G02*
X197952789Y-56847200I450514J216879D01*
G01*
X197299501Y-59118341D02*
G75*
G02*
X197250015Y-59335218I-499991J1D01*
G01*
X197952789Y-59983798D02*
G75*
G02*
X197250019Y-59335219I-252259J431698D01*
G01*
X197952789Y-59983798D02*
G75*
G02*
X198205048Y-59915499I252261J-431712D01*
G01*
X198205047Y-56915500D02*
G75*
G02*
X197952789Y-56847201I3J500010D01*
G01*
X199793952Y-59915499D02*
G75*
G02*
X200046210Y-59983798I-3J-500009D01*
G01*
X200046211Y-56847200D02*
G75*
G02*
X199793953Y-56915499I-252261J431710D01*
G01*
X200046211Y-56847200D02*
G75*
G02*
X200748984Y-57495779I252258J-431701D01*
G01*
X200699499Y-57712657D02*
G75*
G02*
X200748984Y-57495779I499990J2D01*
G01*
X200748984Y-59335219D02*
G75*
G02*
X200046211Y-59983796I-450515J-216877D01*
G01*
X200748984Y-59335219D02*
G75*
G02*
X200699499Y-59118342I450505J216876D01*
G01*
%TO.C,D207*%
X178249501Y-62475157D02*
X178249501Y-63880841D01*
X179155048Y-64677999D02*
X180743952Y-64677999D01*
X180743952Y-61678000D02*
X179155047Y-61678000D01*
X181649499Y-63880841D02*
X181649499Y-62475157D01*
X178200016Y-62258279D02*
G75*
G02*
X178249519Y-62475156I-450516J-216921D01*
G01*
X178200016Y-62258279D02*
G75*
G02*
X178902789Y-61609700I450514J216879D01*
G01*
X178249501Y-63880841D02*
G75*
G02*
X178200015Y-64097718I-499991J1D01*
G01*
X178902789Y-64746298D02*
G75*
G02*
X178200019Y-64097719I-252259J431698D01*
G01*
X178902789Y-64746298D02*
G75*
G02*
X179155048Y-64677999I252261J-431712D01*
G01*
X179155047Y-61678000D02*
G75*
G02*
X178902789Y-61609701I3J500010D01*
G01*
X180743952Y-64677999D02*
G75*
G02*
X180996210Y-64746298I-3J-500009D01*
G01*
X180996211Y-61609700D02*
G75*
G02*
X180743953Y-61677999I-252261J431710D01*
G01*
X180996211Y-61609700D02*
G75*
G02*
X181698984Y-62258279I252258J-431701D01*
G01*
X181649499Y-62475157D02*
G75*
G02*
X181698984Y-62258279I499990J2D01*
G01*
X181698984Y-64097719D02*
G75*
G02*
X180996211Y-64746296I-450515J-216877D01*
G01*
X181698984Y-64097719D02*
G75*
G02*
X181649499Y-63880842I450505J216876D01*
G01*
%TO.C,H9*%
X147282863Y-65586402D02*
G75*
G02*
X149282863Y-65586402I1000000J0D01*
G01*
X149282863Y-61586402D02*
G75*
G02*
X147282863Y-61586402I-1000000J0D01*
G01*
%TO.C,D313*%
X95736071Y-76757309D02*
X95736071Y-78162993D01*
X96641618Y-78960151D02*
X98230522Y-78960151D01*
X98230522Y-75960152D02*
X96641617Y-75960152D01*
X99136069Y-78162993D02*
X99136069Y-76757309D01*
X95686586Y-76540431D02*
G75*
G02*
X95736089Y-76757308I-450516J-216921D01*
G01*
X95686586Y-76540431D02*
G75*
G02*
X96389359Y-75891852I450514J216879D01*
G01*
X95736071Y-78162993D02*
G75*
G02*
X95686585Y-78379870I-499991J1D01*
G01*
X96389359Y-79028450D02*
G75*
G02*
X95686589Y-78379871I-252259J431698D01*
G01*
X96389359Y-79028450D02*
G75*
G02*
X96641618Y-78960151I252261J-431712D01*
G01*
X96641617Y-75960152D02*
G75*
G02*
X96389359Y-75891853I3J500010D01*
G01*
X98230522Y-78960151D02*
G75*
G02*
X98482780Y-79028450I-3J-500009D01*
G01*
X98482781Y-75891852D02*
G75*
G02*
X98230523Y-75960151I-252261J431710D01*
G01*
X98482781Y-75891852D02*
G75*
G02*
X99185554Y-76540431I252258J-431701D01*
G01*
X99136069Y-76757309D02*
G75*
G02*
X99185554Y-76540431I499990J2D01*
G01*
X99185554Y-78379871D02*
G75*
G02*
X98482781Y-79028448I-450515J-216877D01*
G01*
X99185554Y-78379871D02*
G75*
G02*
X99136069Y-78162994I450505J216876D01*
G01*
%TO.C,D302*%
X114786071Y-43419809D02*
X114786071Y-44825493D01*
X115691618Y-45622651D02*
X117280522Y-45622651D01*
X117280522Y-42622652D02*
X115691617Y-42622652D01*
X118186069Y-44825493D02*
X118186069Y-43419809D01*
X114736586Y-43202931D02*
G75*
G02*
X114786089Y-43419808I-450516J-216921D01*
G01*
X114736586Y-43202931D02*
G75*
G02*
X115439359Y-42554352I450514J216879D01*
G01*
X114786071Y-44825493D02*
G75*
G02*
X114736585Y-45042370I-499991J1D01*
G01*
X115439359Y-45690950D02*
G75*
G02*
X114736589Y-45042371I-252259J431698D01*
G01*
X115439359Y-45690950D02*
G75*
G02*
X115691618Y-45622651I252261J-431712D01*
G01*
X115691617Y-42622652D02*
G75*
G02*
X115439359Y-42554353I3J500010D01*
G01*
X117280522Y-45622651D02*
G75*
G02*
X117532780Y-45690950I-3J-500009D01*
G01*
X117532781Y-42554352D02*
G75*
G02*
X117280523Y-42622651I-252261J431710D01*
G01*
X117532781Y-42554352D02*
G75*
G02*
X118235554Y-43202931I252258J-431701D01*
G01*
X118186069Y-43419809D02*
G75*
G02*
X118235554Y-43202931I499990J2D01*
G01*
X118235554Y-45042371D02*
G75*
G02*
X117532781Y-45690948I-450515J-216877D01*
G01*
X118235554Y-45042371D02*
G75*
G02*
X118186069Y-44825494I450505J216876D01*
G01*
%TO.C,D217*%
X178249501Y-100619657D02*
X178249501Y-102025341D01*
X179155048Y-102822499D02*
X180743952Y-102822499D01*
X180743952Y-99822500D02*
X179155047Y-99822500D01*
X181649499Y-102025341D02*
X181649499Y-100619657D01*
X178200016Y-100402779D02*
G75*
G02*
X178249519Y-100619656I-450516J-216921D01*
G01*
X178200016Y-100402779D02*
G75*
G02*
X178902789Y-99754200I450514J216879D01*
G01*
X178249501Y-102025341D02*
G75*
G02*
X178200015Y-102242218I-499991J1D01*
G01*
X178902789Y-102890798D02*
G75*
G02*
X178200019Y-102242219I-252259J431698D01*
G01*
X178902789Y-102890798D02*
G75*
G02*
X179155048Y-102822499I252261J-431712D01*
G01*
X179155047Y-99822500D02*
G75*
G02*
X178902789Y-99754201I3J500010D01*
G01*
X180743952Y-102822499D02*
G75*
G02*
X180996210Y-102890798I-3J-500009D01*
G01*
X180996211Y-99754200D02*
G75*
G02*
X180743953Y-99822499I-252261J431710D01*
G01*
X180996211Y-99754200D02*
G75*
G02*
X181698984Y-100402779I252258J-431701D01*
G01*
X181649499Y-100619657D02*
G75*
G02*
X181698984Y-100402779I499990J2D01*
G01*
X181698984Y-102242219D02*
G75*
G02*
X180996211Y-102890796I-450515J-216877D01*
G01*
X181698984Y-102242219D02*
G75*
G02*
X181649499Y-102025342I450505J216876D01*
G01*
%TO.C,D210*%
X235399501Y-64380157D02*
X235399501Y-65785841D01*
X236305048Y-66582999D02*
X237893952Y-66582999D01*
X237893952Y-63583000D02*
X236305047Y-63583000D01*
X238799499Y-65785841D02*
X238799499Y-64380157D01*
X235350016Y-64163279D02*
G75*
G02*
X235399519Y-64380156I-450516J-216921D01*
G01*
X235350016Y-64163279D02*
G75*
G02*
X236052789Y-63514700I450514J216879D01*
G01*
X235399501Y-65785841D02*
G75*
G02*
X235350015Y-66002718I-499991J1D01*
G01*
X236052789Y-66651298D02*
G75*
G02*
X235350019Y-66002719I-252259J431698D01*
G01*
X236052789Y-66651298D02*
G75*
G02*
X236305048Y-66582999I252261J-431712D01*
G01*
X236305047Y-63583000D02*
G75*
G02*
X236052789Y-63514701I3J500010D01*
G01*
X237893952Y-66582999D02*
G75*
G02*
X238146210Y-66651298I-3J-500009D01*
G01*
X238146211Y-63514700D02*
G75*
G02*
X237893953Y-63582999I-252261J431710D01*
G01*
X238146211Y-63514700D02*
G75*
G02*
X238848984Y-64163279I252258J-431701D01*
G01*
X238799499Y-64380157D02*
G75*
G02*
X238848984Y-64163279I499990J2D01*
G01*
X238848984Y-66002719D02*
G75*
G02*
X238146211Y-66651296I-450515J-216877D01*
G01*
X238848984Y-66002719D02*
G75*
G02*
X238799499Y-65785842I450505J216876D01*
G01*
%TO.C,D304*%
X76686071Y-43419809D02*
X76686071Y-44825493D01*
X77591618Y-45622651D02*
X79180522Y-45622651D01*
X79180522Y-42622652D02*
X77591617Y-42622652D01*
X80086069Y-44825493D02*
X80086069Y-43419809D01*
X76636586Y-43202931D02*
G75*
G02*
X76686089Y-43419808I-450516J-216921D01*
G01*
X76636586Y-43202931D02*
G75*
G02*
X77339359Y-42554352I450514J216879D01*
G01*
X76686071Y-44825493D02*
G75*
G02*
X76636585Y-45042370I-499991J1D01*
G01*
X77339359Y-45690950D02*
G75*
G02*
X76636589Y-45042371I-252259J431698D01*
G01*
X77339359Y-45690950D02*
G75*
G02*
X77591618Y-45622651I252261J-431712D01*
G01*
X77591617Y-42622652D02*
G75*
G02*
X77339359Y-42554353I3J500010D01*
G01*
X79180522Y-45622651D02*
G75*
G02*
X79432780Y-45690950I-3J-500009D01*
G01*
X79432781Y-42554352D02*
G75*
G02*
X79180523Y-42622651I-252261J431710D01*
G01*
X79432781Y-42554352D02*
G75*
G02*
X80135554Y-43202931I252258J-431701D01*
G01*
X80086069Y-43419809D02*
G75*
G02*
X80135554Y-43202931I499990J2D01*
G01*
X80135554Y-45042371D02*
G75*
G02*
X79432781Y-45690948I-450515J-216877D01*
G01*
X80135554Y-45042371D02*
G75*
G02*
X80086069Y-44825494I450505J216876D01*
G01*
%TO.C,D201*%
X159199501Y-48187659D02*
X159199501Y-49593343D01*
X160105048Y-50390500D02*
X161693953Y-50390500D01*
X161693952Y-47390501D02*
X160105048Y-47390501D01*
X162599499Y-49593343D02*
X162599499Y-48187659D01*
X159150016Y-47970781D02*
G75*
G02*
X159199501Y-48187658I-450505J-216876D01*
G01*
X159150016Y-47970781D02*
G75*
G02*
X159852789Y-47322204I450515J216877D01*
G01*
X159199501Y-49593343D02*
G75*
G02*
X159150016Y-49810221I-499990J-2D01*
G01*
X159852789Y-50458800D02*
G75*
G02*
X159150016Y-49810221I-252258J431701D01*
G01*
X159852789Y-50458800D02*
G75*
G02*
X160105047Y-50390501I252261J-431710D01*
G01*
X160105048Y-47390501D02*
G75*
G02*
X159852790Y-47322202I3J500009D01*
G01*
X161693953Y-50390500D02*
G75*
G02*
X161946211Y-50458799I-3J-500010D01*
G01*
X161946211Y-47322202D02*
G75*
G02*
X161693952Y-47390501I-252261J431712D01*
G01*
X161946211Y-47322202D02*
G75*
G02*
X162648981Y-47970781I252259J-431698D01*
G01*
X162599499Y-48187659D02*
G75*
G02*
X162648985Y-47970782I499991J-1D01*
G01*
X162648984Y-49810221D02*
G75*
G02*
X161946211Y-50458800I-450514J-216879D01*
G01*
X162648984Y-49810221D02*
G75*
G02*
X162599481Y-49593344I450516J216921D01*
G01*
%TO.C,D314*%
X76686071Y-81519809D02*
X76686071Y-82925493D01*
X77591618Y-83722651D02*
X79180522Y-83722651D01*
X79180522Y-80722652D02*
X77591617Y-80722652D01*
X80086069Y-82925493D02*
X80086069Y-81519809D01*
X76636586Y-81302931D02*
G75*
G02*
X76686089Y-81519808I-450516J-216921D01*
G01*
X76636586Y-81302931D02*
G75*
G02*
X77339359Y-80654352I450514J216879D01*
G01*
X76686071Y-82925493D02*
G75*
G02*
X76636585Y-83142370I-499991J1D01*
G01*
X77339359Y-83790950D02*
G75*
G02*
X76636589Y-83142371I-252259J431698D01*
G01*
X77339359Y-83790950D02*
G75*
G02*
X77591618Y-83722651I252261J-431712D01*
G01*
X77591617Y-80722652D02*
G75*
G02*
X77339359Y-80654353I3J500010D01*
G01*
X79180522Y-83722651D02*
G75*
G02*
X79432780Y-83790950I-3J-500009D01*
G01*
X79432781Y-80654352D02*
G75*
G02*
X79180523Y-80722651I-252261J431710D01*
G01*
X79432781Y-80654352D02*
G75*
G02*
X80135554Y-81302931I252258J-431701D01*
G01*
X80086069Y-81519809D02*
G75*
G02*
X80135554Y-81302931I499990J2D01*
G01*
X80135554Y-83142371D02*
G75*
G02*
X79432781Y-83790948I-450515J-216877D01*
G01*
X80135554Y-83142371D02*
G75*
G02*
X80086069Y-82925494I450505J216876D01*
G01*
%TO.C,D306*%
X133836071Y-67232311D02*
X133836071Y-68637995D01*
X134741618Y-69435152D02*
X136330523Y-69435152D01*
X136330522Y-66435153D02*
X134741618Y-66435153D01*
X137236069Y-68637995D02*
X137236069Y-67232311D01*
X133786586Y-67015433D02*
G75*
G02*
X133836071Y-67232310I-450505J-216876D01*
G01*
X133786586Y-67015433D02*
G75*
G02*
X134489359Y-66366856I450515J216877D01*
G01*
X133836071Y-68637995D02*
G75*
G02*
X133786586Y-68854873I-499990J-2D01*
G01*
X134489359Y-69503452D02*
G75*
G02*
X133786586Y-68854873I-252258J431701D01*
G01*
X134489359Y-69503452D02*
G75*
G02*
X134741617Y-69435153I252261J-431710D01*
G01*
X134741618Y-66435153D02*
G75*
G02*
X134489360Y-66366854I3J500009D01*
G01*
X136330523Y-69435152D02*
G75*
G02*
X136582781Y-69503451I-3J-500010D01*
G01*
X136582781Y-66366854D02*
G75*
G02*
X136330522Y-66435153I-252261J431712D01*
G01*
X136582781Y-66366854D02*
G75*
G02*
X137285551Y-67015433I252259J-431698D01*
G01*
X137236069Y-67232311D02*
G75*
G02*
X137285555Y-67015434I499991J-1D01*
G01*
X137285554Y-68854873D02*
G75*
G02*
X136582781Y-69503452I-450514J-216879D01*
G01*
X137285554Y-68854873D02*
G75*
G02*
X137236051Y-68637996I450516J216921D01*
G01*
%TO.C,D209*%
X216349501Y-62475157D02*
X216349501Y-63880841D01*
X217255048Y-64677999D02*
X218843952Y-64677999D01*
X218843952Y-61678000D02*
X217255047Y-61678000D01*
X219749499Y-63880841D02*
X219749499Y-62475157D01*
X216300016Y-62258279D02*
G75*
G02*
X216349519Y-62475156I-450516J-216921D01*
G01*
X216300016Y-62258279D02*
G75*
G02*
X217002789Y-61609700I450514J216879D01*
G01*
X216349501Y-63880841D02*
G75*
G02*
X216300015Y-64097718I-499991J1D01*
G01*
X217002789Y-64746298D02*
G75*
G02*
X216300019Y-64097719I-252259J431698D01*
G01*
X217002789Y-64746298D02*
G75*
G02*
X217255048Y-64677999I252261J-431712D01*
G01*
X217255047Y-61678000D02*
G75*
G02*
X217002789Y-61609701I3J500010D01*
G01*
X218843952Y-64677999D02*
G75*
G02*
X219096210Y-64746298I-3J-500009D01*
G01*
X219096211Y-61609700D02*
G75*
G02*
X218843953Y-61677999I-252261J431710D01*
G01*
X219096211Y-61609700D02*
G75*
G02*
X219798984Y-62258279I252258J-431701D01*
G01*
X219749499Y-62475157D02*
G75*
G02*
X219798984Y-62258279I499990J2D01*
G01*
X219798984Y-64097719D02*
G75*
G02*
X219096211Y-64746296I-450515J-216877D01*
G01*
X219798984Y-64097719D02*
G75*
G02*
X219749499Y-63880842I450505J216876D01*
G01*
%TO.C,D221*%
X229851752Y-123825356D02*
X229607657Y-125209685D01*
X230361022Y-126151977D02*
X231925788Y-126427888D01*
X232446732Y-123473465D02*
X230881967Y-123197555D01*
X232956002Y-125800088D02*
X233200096Y-124415759D01*
X229607657Y-125209685D02*
G75*
G02*
X229521263Y-125414675I-492394J86821D01*
G01*
X229840679Y-123603180D02*
G75*
G02*
X229851752Y-123825355I-481321J-135352D01*
G01*
X229840679Y-123603180D02*
G75*
G02*
X230645400Y-123086490I481332J135351D01*
G01*
X230100735Y-126175438D02*
G75*
G02*
X229521264Y-125414675I-173459J468949D01*
G01*
X230100735Y-126175438D02*
G75*
G02*
X230361021Y-126151978I173465J-468915D01*
G01*
X230881967Y-123197555D02*
G75*
G02*
X230645401Y-123086490I86828J492412D01*
G01*
X231925788Y-126427888D02*
G75*
G02*
X232162352Y-126538956I-86825J-492393D01*
G01*
X232707018Y-123450008D02*
G75*
G02*
X232446732Y-123473463I-173456J468936D01*
G01*
X232707018Y-123450008D02*
G75*
G02*
X233286487Y-124210768I173463J-468944D01*
G01*
X232967075Y-126022264D02*
G75*
G02*
X232162353Y-126538954I-481331J-135353D01*
G01*
X232967075Y-126022264D02*
G75*
G02*
X232955984Y-125800086I481339J135394D01*
G01*
X233200096Y-124415759D02*
G75*
G02*
X233286491Y-124210770I492395J-86824D01*
G01*
%TO.C,D214*%
X216349501Y-81525159D02*
X216349501Y-82930843D01*
X217255048Y-83728000D02*
X218843953Y-83728000D01*
X218843952Y-80728001D02*
X217255048Y-80728001D01*
X219749499Y-82930843D02*
X219749499Y-81525159D01*
X216300016Y-81308281D02*
G75*
G02*
X216349501Y-81525158I-450505J-216876D01*
G01*
X216300016Y-81308281D02*
G75*
G02*
X217002789Y-80659704I450515J216877D01*
G01*
X216349501Y-82930843D02*
G75*
G02*
X216300016Y-83147721I-499990J-2D01*
G01*
X217002789Y-83796300D02*
G75*
G02*
X216300016Y-83147721I-252258J431701D01*
G01*
X217002789Y-83796300D02*
G75*
G02*
X217255047Y-83728001I252261J-431710D01*
G01*
X217255048Y-80728001D02*
G75*
G02*
X217002790Y-80659702I3J500009D01*
G01*
X218843953Y-83728000D02*
G75*
G02*
X219096211Y-83796299I-3J-500010D01*
G01*
X219096211Y-80659702D02*
G75*
G02*
X218843952Y-80728001I-252261J431712D01*
G01*
X219096211Y-80659702D02*
G75*
G02*
X219798981Y-81308281I252259J-431698D01*
G01*
X219749499Y-81525159D02*
G75*
G02*
X219798985Y-81308282I499991J-1D01*
G01*
X219798984Y-83147721D02*
G75*
G02*
X219096211Y-83796300I-450514J-216879D01*
G01*
X219798984Y-83147721D02*
G75*
G02*
X219749481Y-82930844I450516J216921D01*
G01*
%TO.C,D311*%
X133836071Y-86282309D02*
X133836071Y-87687993D01*
X134741618Y-88485151D02*
X136330522Y-88485151D01*
X136330522Y-85485152D02*
X134741617Y-85485152D01*
X137236069Y-87687993D02*
X137236069Y-86282309D01*
X133786586Y-86065431D02*
G75*
G02*
X133836089Y-86282308I-450516J-216921D01*
G01*
X133786586Y-86065431D02*
G75*
G02*
X134489359Y-85416852I450514J216879D01*
G01*
X133836071Y-87687993D02*
G75*
G02*
X133786585Y-87904870I-499991J1D01*
G01*
X134489359Y-88553450D02*
G75*
G02*
X133786589Y-87904871I-252259J431698D01*
G01*
X134489359Y-88553450D02*
G75*
G02*
X134741618Y-88485151I252261J-431712D01*
G01*
X134741617Y-85485152D02*
G75*
G02*
X134489359Y-85416853I3J500010D01*
G01*
X136330522Y-88485151D02*
G75*
G02*
X136582780Y-88553450I-3J-500009D01*
G01*
X136582781Y-85416852D02*
G75*
G02*
X136330523Y-85485151I-252261J431710D01*
G01*
X136582781Y-85416852D02*
G75*
G02*
X137285554Y-86065431I252258J-431701D01*
G01*
X137236069Y-86282309D02*
G75*
G02*
X137285554Y-86065431I499990J2D01*
G01*
X137285554Y-87904871D02*
G75*
G02*
X136582781Y-88553448I-450515J-216877D01*
G01*
X137285554Y-87904871D02*
G75*
G02*
X137236069Y-87687994I450505J216876D01*
G01*
%TO.C,D308*%
X95736071Y-57707311D02*
X95736071Y-59112995D01*
X96641618Y-59910152D02*
X98230523Y-59910152D01*
X98230522Y-56910153D02*
X96641618Y-56910153D01*
X99136069Y-59112995D02*
X99136069Y-57707311D01*
X95686586Y-57490433D02*
G75*
G02*
X95736071Y-57707310I-450505J-216876D01*
G01*
X95686586Y-57490433D02*
G75*
G02*
X96389359Y-56841856I450515J216877D01*
G01*
X95736071Y-59112995D02*
G75*
G02*
X95686586Y-59329873I-499990J-2D01*
G01*
X96389359Y-59978452D02*
G75*
G02*
X95686586Y-59329873I-252258J431701D01*
G01*
X96389359Y-59978452D02*
G75*
G02*
X96641617Y-59910153I252261J-431710D01*
G01*
X96641618Y-56910153D02*
G75*
G02*
X96389360Y-56841854I3J500009D01*
G01*
X98230523Y-59910152D02*
G75*
G02*
X98482781Y-59978451I-3J-500010D01*
G01*
X98482781Y-56841854D02*
G75*
G02*
X98230522Y-56910153I-252261J431712D01*
G01*
X98482781Y-56841854D02*
G75*
G02*
X99185551Y-57490433I252259J-431698D01*
G01*
X99136069Y-57707311D02*
G75*
G02*
X99185555Y-57490434I499991J-1D01*
G01*
X99185554Y-59329873D02*
G75*
G02*
X98482781Y-59978452I-450514J-216879D01*
G01*
X99185554Y-59329873D02*
G75*
G02*
X99136051Y-59112996I450516J216921D01*
G01*
%TO.C,D216*%
X159199501Y-105337657D02*
X159199501Y-106743341D01*
X160105048Y-107540499D02*
X161693952Y-107540499D01*
X161693952Y-104540500D02*
X160105047Y-104540500D01*
X162599499Y-106743341D02*
X162599499Y-105337657D01*
X159150016Y-105120779D02*
G75*
G02*
X159199519Y-105337656I-450516J-216921D01*
G01*
X159150016Y-105120779D02*
G75*
G02*
X159852789Y-104472200I450514J216879D01*
G01*
X159199501Y-106743341D02*
G75*
G02*
X159150015Y-106960218I-499991J1D01*
G01*
X159852789Y-107608798D02*
G75*
G02*
X159150019Y-106960219I-252259J431698D01*
G01*
X159852789Y-107608798D02*
G75*
G02*
X160105048Y-107540499I252261J-431712D01*
G01*
X160105047Y-104540500D02*
G75*
G02*
X159852789Y-104472201I3J500010D01*
G01*
X161693952Y-107540499D02*
G75*
G02*
X161946210Y-107608798I-3J-500009D01*
G01*
X161946211Y-104472200D02*
G75*
G02*
X161693953Y-104540499I-252261J431710D01*
G01*
X161946211Y-104472200D02*
G75*
G02*
X162648984Y-105120779I252258J-431701D01*
G01*
X162599499Y-105337657D02*
G75*
G02*
X162648984Y-105120779I499990J2D01*
G01*
X162648984Y-106960219D02*
G75*
G02*
X161946211Y-107608796I-450515J-216877D01*
G01*
X162648984Y-106960219D02*
G75*
G02*
X162599499Y-106743342I450505J216876D01*
G01*
%TO.C,D218*%
X197299501Y-95812657D02*
X197299501Y-97218341D01*
X198205048Y-98015499D02*
X199793952Y-98015499D01*
X199793952Y-95015500D02*
X198205047Y-95015500D01*
X200699499Y-97218341D02*
X200699499Y-95812657D01*
X197250016Y-95595779D02*
G75*
G02*
X197299519Y-95812656I-450516J-216921D01*
G01*
X197250016Y-95595779D02*
G75*
G02*
X197952789Y-94947200I450514J216879D01*
G01*
X197299501Y-97218341D02*
G75*
G02*
X197250015Y-97435218I-499991J1D01*
G01*
X197952789Y-98083798D02*
G75*
G02*
X197250019Y-97435219I-252259J431698D01*
G01*
X197952789Y-98083798D02*
G75*
G02*
X198205048Y-98015499I252261J-431712D01*
G01*
X198205047Y-95015500D02*
G75*
G02*
X197952789Y-94947201I3J500010D01*
G01*
X199793952Y-98015499D02*
G75*
G02*
X200046210Y-98083798I-3J-500009D01*
G01*
X200046211Y-94947200D02*
G75*
G02*
X199793953Y-95015499I-252261J431710D01*
G01*
X200046211Y-94947200D02*
G75*
G02*
X200748984Y-95595779I252258J-431701D01*
G01*
X200699499Y-95812657D02*
G75*
G02*
X200748984Y-95595779I499990J2D01*
G01*
X200748984Y-97435219D02*
G75*
G02*
X200046211Y-98083796I-450515J-216877D01*
G01*
X200748984Y-97435219D02*
G75*
G02*
X200699499Y-97218342I450505J216876D01*
G01*
%TO.C,D320*%
X57636071Y-102474811D02*
X57636071Y-103880495D01*
X58541618Y-104677652D02*
X60130523Y-104677652D01*
X60130522Y-101677653D02*
X58541618Y-101677653D01*
X61036069Y-103880495D02*
X61036069Y-102474811D01*
X57586586Y-102257933D02*
G75*
G02*
X57636071Y-102474810I-450505J-216876D01*
G01*
X57586586Y-102257933D02*
G75*
G02*
X58289359Y-101609356I450515J216877D01*
G01*
X57636071Y-103880495D02*
G75*
G02*
X57586586Y-104097373I-499990J-2D01*
G01*
X58289359Y-104745952D02*
G75*
G02*
X57586586Y-104097373I-252258J431701D01*
G01*
X58289359Y-104745952D02*
G75*
G02*
X58541617Y-104677653I252261J-431710D01*
G01*
X58541618Y-101677653D02*
G75*
G02*
X58289360Y-101609354I3J500009D01*
G01*
X60130523Y-104677652D02*
G75*
G02*
X60382781Y-104745951I-3J-500010D01*
G01*
X60382781Y-101609354D02*
G75*
G02*
X60130522Y-101677653I-252261J431712D01*
G01*
X60382781Y-101609354D02*
G75*
G02*
X61085551Y-102257933I252259J-431698D01*
G01*
X61036069Y-102474811D02*
G75*
G02*
X61085555Y-102257934I499991J-1D01*
G01*
X61085554Y-104097373D02*
G75*
G02*
X60382781Y-104745952I-450514J-216879D01*
G01*
X61085554Y-104097373D02*
G75*
G02*
X61036051Y-103880496I450516J216921D01*
G01*
%TO.C,D309*%
X76686071Y-62469811D02*
X76686071Y-63875495D01*
X77591618Y-64672652D02*
X79180523Y-64672652D01*
X79180522Y-61672653D02*
X77591618Y-61672653D01*
X80086069Y-63875495D02*
X80086069Y-62469811D01*
X76636586Y-62252933D02*
G75*
G02*
X76686071Y-62469810I-450505J-216876D01*
G01*
X76636586Y-62252933D02*
G75*
G02*
X77339359Y-61604356I450515J216877D01*
G01*
X76686071Y-63875495D02*
G75*
G02*
X76636586Y-64092373I-499990J-2D01*
G01*
X77339359Y-64740952D02*
G75*
G02*
X76636586Y-64092373I-252258J431701D01*
G01*
X77339359Y-64740952D02*
G75*
G02*
X77591617Y-64672653I252261J-431710D01*
G01*
X77591618Y-61672653D02*
G75*
G02*
X77339360Y-61604354I3J500009D01*
G01*
X79180523Y-64672652D02*
G75*
G02*
X79432781Y-64740951I-3J-500010D01*
G01*
X79432781Y-61604354D02*
G75*
G02*
X79180522Y-61672653I-252261J431712D01*
G01*
X79432781Y-61604354D02*
G75*
G02*
X80135551Y-62252933I252259J-431698D01*
G01*
X80086069Y-62469811D02*
G75*
G02*
X80135555Y-62252934I499991J-1D01*
G01*
X80135554Y-64092373D02*
G75*
G02*
X79432781Y-64740952I-450514J-216879D01*
G01*
X80135554Y-64092373D02*
G75*
G02*
X80086051Y-63875496I450516J216921D01*
G01*
%TO.C,D317*%
X114786071Y-100614311D02*
X114786071Y-102019995D01*
X115691618Y-102817152D02*
X117280523Y-102817152D01*
X117280522Y-99817153D02*
X115691618Y-99817153D01*
X118186069Y-102019995D02*
X118186069Y-100614311D01*
X114736586Y-100397433D02*
G75*
G02*
X114786071Y-100614310I-450505J-216876D01*
G01*
X114736586Y-100397433D02*
G75*
G02*
X115439359Y-99748856I450515J216877D01*
G01*
X114786071Y-102019995D02*
G75*
G02*
X114736586Y-102236873I-499990J-2D01*
G01*
X115439359Y-102885452D02*
G75*
G02*
X114736586Y-102236873I-252258J431701D01*
G01*
X115439359Y-102885452D02*
G75*
G02*
X115691617Y-102817153I252261J-431710D01*
G01*
X115691618Y-99817153D02*
G75*
G02*
X115439360Y-99748854I3J500009D01*
G01*
X117280523Y-102817152D02*
G75*
G02*
X117532781Y-102885451I-3J-500010D01*
G01*
X117532781Y-99748854D02*
G75*
G02*
X117280522Y-99817153I-252261J431712D01*
G01*
X117532781Y-99748854D02*
G75*
G02*
X118235551Y-100397433I252259J-431698D01*
G01*
X118186069Y-100614311D02*
G75*
G02*
X118235555Y-100397434I499991J-1D01*
G01*
X118235554Y-102236873D02*
G75*
G02*
X117532781Y-102885452I-450514J-216879D01*
G01*
X118235554Y-102236873D02*
G75*
G02*
X118186051Y-102019996I450516J216921D01*
G01*
%TO.C,D319*%
X76686071Y-100569811D02*
X76686071Y-101975495D01*
X77591618Y-102772652D02*
X79180523Y-102772652D01*
X79180522Y-99772653D02*
X77591618Y-99772653D01*
X80086069Y-101975495D02*
X80086069Y-100569811D01*
X76636586Y-100352933D02*
G75*
G02*
X76686071Y-100569810I-450505J-216876D01*
G01*
X76636586Y-100352933D02*
G75*
G02*
X77339359Y-99704356I450515J216877D01*
G01*
X76686071Y-101975495D02*
G75*
G02*
X76636586Y-102192373I-499990J-2D01*
G01*
X77339359Y-102840952D02*
G75*
G02*
X76636586Y-102192373I-252258J431701D01*
G01*
X77339359Y-102840952D02*
G75*
G02*
X77591617Y-102772653I252261J-431710D01*
G01*
X77591618Y-99772653D02*
G75*
G02*
X77339360Y-99704354I3J500009D01*
G01*
X79180523Y-102772652D02*
G75*
G02*
X79432781Y-102840951I-3J-500010D01*
G01*
X79432781Y-99704354D02*
G75*
G02*
X79180522Y-99772653I-252261J431712D01*
G01*
X79432781Y-99704354D02*
G75*
G02*
X80135551Y-100352933I252259J-431698D01*
G01*
X80086069Y-100569811D02*
G75*
G02*
X80135555Y-100352934I499991J-1D01*
G01*
X80135554Y-102192373D02*
G75*
G02*
X79432781Y-102840952I-450514J-216879D01*
G01*
X80135554Y-102192373D02*
G75*
G02*
X80086051Y-101975496I450516J216921D01*
G01*
%TO.C,D202*%
X178249501Y-43425159D02*
X178249501Y-44830843D01*
X179155048Y-45628000D02*
X180743953Y-45628000D01*
X180743952Y-42628001D02*
X179155048Y-42628001D01*
X181649499Y-44830843D02*
X181649499Y-43425159D01*
X178200016Y-43208281D02*
G75*
G02*
X178249501Y-43425158I-450505J-216876D01*
G01*
X178200016Y-43208281D02*
G75*
G02*
X178902789Y-42559704I450515J216877D01*
G01*
X178249501Y-44830843D02*
G75*
G02*
X178200016Y-45047721I-499990J-2D01*
G01*
X178902789Y-45696300D02*
G75*
G02*
X178200016Y-45047721I-252258J431701D01*
G01*
X178902789Y-45696300D02*
G75*
G02*
X179155047Y-45628001I252261J-431710D01*
G01*
X179155048Y-42628001D02*
G75*
G02*
X178902790Y-42559702I3J500009D01*
G01*
X180743953Y-45628000D02*
G75*
G02*
X180996211Y-45696299I-3J-500010D01*
G01*
X180996211Y-42559702D02*
G75*
G02*
X180743952Y-42628001I-252261J431712D01*
G01*
X180996211Y-42559702D02*
G75*
G02*
X181698981Y-43208281I252259J-431698D01*
G01*
X181649499Y-43425159D02*
G75*
G02*
X181698985Y-43208282I499991J-1D01*
G01*
X181698984Y-45047721D02*
G75*
G02*
X180996211Y-45696300I-450514J-216879D01*
G01*
X181698984Y-45047721D02*
G75*
G02*
X181649481Y-44830844I450516J216921D01*
G01*
%TO.C,D305*%
X57636071Y-45324809D02*
X57636071Y-46730493D01*
X58541618Y-47527651D02*
X60130522Y-47527651D01*
X60130522Y-44527652D02*
X58541617Y-44527652D01*
X61036069Y-46730493D02*
X61036069Y-45324809D01*
X57586586Y-45107931D02*
G75*
G02*
X57636089Y-45324808I-450516J-216921D01*
G01*
X57586586Y-45107931D02*
G75*
G02*
X58289359Y-44459352I450514J216879D01*
G01*
X57636071Y-46730493D02*
G75*
G02*
X57586585Y-46947370I-499991J1D01*
G01*
X58289359Y-47595950D02*
G75*
G02*
X57586589Y-46947371I-252259J431698D01*
G01*
X58289359Y-47595950D02*
G75*
G02*
X58541618Y-47527651I252261J-431712D01*
G01*
X58541617Y-44527652D02*
G75*
G02*
X58289359Y-44459353I3J500010D01*
G01*
X60130522Y-47527651D02*
G75*
G02*
X60382780Y-47595950I-3J-500009D01*
G01*
X60382781Y-44459352D02*
G75*
G02*
X60130523Y-44527651I-252261J431710D01*
G01*
X60382781Y-44459352D02*
G75*
G02*
X61085554Y-45107931I252258J-431701D01*
G01*
X61036069Y-45324809D02*
G75*
G02*
X61085554Y-45107931I499990J2D01*
G01*
X61085554Y-46947371D02*
G75*
G02*
X60382781Y-47595948I-450515J-216877D01*
G01*
X61085554Y-46947371D02*
G75*
G02*
X61036069Y-46730494I450505J216876D01*
G01*
%TO.C,D211*%
X159199501Y-86287659D02*
X159199501Y-87693343D01*
X160105048Y-88490500D02*
X161693953Y-88490500D01*
X161693952Y-85490501D02*
X160105048Y-85490501D01*
X162599499Y-87693343D02*
X162599499Y-86287659D01*
X159150016Y-86070781D02*
G75*
G02*
X159199501Y-86287658I-450505J-216876D01*
G01*
X159150016Y-86070781D02*
G75*
G02*
X159852789Y-85422204I450515J216877D01*
G01*
X159199501Y-87693343D02*
G75*
G02*
X159150016Y-87910221I-499990J-2D01*
G01*
X159852789Y-88558800D02*
G75*
G02*
X159150016Y-87910221I-252258J431701D01*
G01*
X159852789Y-88558800D02*
G75*
G02*
X160105047Y-88490501I252261J-431710D01*
G01*
X160105048Y-85490501D02*
G75*
G02*
X159852790Y-85422202I3J500009D01*
G01*
X161693953Y-88490500D02*
G75*
G02*
X161946211Y-88558799I-3J-500010D01*
G01*
X161946211Y-85422202D02*
G75*
G02*
X161693952Y-85490501I-252261J431712D01*
G01*
X161946211Y-85422202D02*
G75*
G02*
X162648981Y-86070781I252259J-431698D01*
G01*
X162599499Y-86287659D02*
G75*
G02*
X162648985Y-86070782I499991J-1D01*
G01*
X162648984Y-87910221D02*
G75*
G02*
X161946211Y-88558800I-450514J-216879D01*
G01*
X162648984Y-87910221D02*
G75*
G02*
X162599481Y-87693344I450516J216921D01*
G01*
%TO.C,D212*%
X178249501Y-81569659D02*
X178249501Y-82975343D01*
X179155048Y-83772500D02*
X180743953Y-83772500D01*
X180743952Y-80772501D02*
X179155048Y-80772501D01*
X181649499Y-82975343D02*
X181649499Y-81569659D01*
X178200016Y-81352781D02*
G75*
G02*
X178249501Y-81569658I-450505J-216876D01*
G01*
X178200016Y-81352781D02*
G75*
G02*
X178902789Y-80704204I450515J216877D01*
G01*
X178249501Y-82975343D02*
G75*
G02*
X178200016Y-83192221I-499990J-2D01*
G01*
X178902789Y-83840800D02*
G75*
G02*
X178200016Y-83192221I-252258J431701D01*
G01*
X178902789Y-83840800D02*
G75*
G02*
X179155047Y-83772501I252261J-431710D01*
G01*
X179155048Y-80772501D02*
G75*
G02*
X178902790Y-80704202I3J500009D01*
G01*
X180743953Y-83772500D02*
G75*
G02*
X180996211Y-83840799I-3J-500010D01*
G01*
X180996211Y-80704202D02*
G75*
G02*
X180743952Y-80772501I-252261J431712D01*
G01*
X180996211Y-80704202D02*
G75*
G02*
X181698981Y-81352781I252259J-431698D01*
G01*
X181649499Y-81569659D02*
G75*
G02*
X181698985Y-81352782I499991J-1D01*
G01*
X181698984Y-83192221D02*
G75*
G02*
X180996211Y-83840800I-450514J-216879D01*
G01*
X181698984Y-83192221D02*
G75*
G02*
X181649481Y-82975344I450516J216921D01*
G01*
%TO.C,D222*%
X254187201Y-137047912D02*
X255404373Y-138069240D01*
X254909471Y-134778363D02*
X254005914Y-135855180D01*
X256610464Y-138040656D02*
X257514020Y-136963840D01*
X257332734Y-135771107D02*
X256115563Y-134749779D01*
X253950057Y-136938084D02*
G75*
G02*
X253828600Y-135989511I84251J492850D01*
G01*
X253950057Y-136938084D02*
G75*
G02*
X254187200Y-137047912I-84255J-492859D01*
G01*
X254005914Y-135855180D02*
G75*
G02*
X253828600Y-135989510I-383022J321393D01*
G01*
X255010969Y-134580417D02*
G75*
G02*
X254909471Y-134778362I-484520J123448D01*
G01*
X255010969Y-134580417D02*
G75*
G02*
X255966223Y-134535312I484521J-123448D01*
G01*
X255404373Y-138069240D02*
G75*
G02*
X255553712Y-138283709I-321403J-383028D01*
G01*
X256115563Y-134749779D02*
G75*
G02*
X255966224Y-134535311I321402J383027D01*
G01*
X256508965Y-138238603D02*
G75*
G02*
X255553711Y-138283709I-484521J123446D01*
G01*
X256508965Y-138238603D02*
G75*
G02*
X256610449Y-138040645I484550J-123415D01*
G01*
X257514020Y-136963840D02*
G75*
G02*
X257691335Y-136829511I383015J-321389D01*
G01*
X257569878Y-135880936D02*
G75*
G02*
X257332734Y-135771107I84256J492861D01*
G01*
X257569878Y-135880936D02*
G75*
G02*
X257691333Y-136829509I-84249J-492849D01*
G01*
%TO.C,H11*%
X147282625Y-103114902D02*
G75*
G02*
X149282625Y-103114902I1000000J0D01*
G01*
X149282625Y-99114902D02*
G75*
G02*
X147282625Y-99114902I-1000000J0D01*
G01*
%TO.C,D219*%
X216349501Y-100575157D02*
X216349501Y-101980841D01*
X217255048Y-102777999D02*
X218843952Y-102777999D01*
X218843952Y-99778000D02*
X217255047Y-99778000D01*
X219749499Y-101980841D02*
X219749499Y-100575157D01*
X216300016Y-100358279D02*
G75*
G02*
X216349519Y-100575156I-450516J-216921D01*
G01*
X216300016Y-100358279D02*
G75*
G02*
X217002789Y-99709700I450514J216879D01*
G01*
X216349501Y-101980841D02*
G75*
G02*
X216300015Y-102197718I-499991J1D01*
G01*
X217002789Y-102846298D02*
G75*
G02*
X216300019Y-102197719I-252259J431698D01*
G01*
X217002789Y-102846298D02*
G75*
G02*
X217255048Y-102777999I252261J-431712D01*
G01*
X217255047Y-99778000D02*
G75*
G02*
X217002789Y-99709701I3J500010D01*
G01*
X218843952Y-102777999D02*
G75*
G02*
X219096210Y-102846298I-3J-500009D01*
G01*
X219096211Y-99709700D02*
G75*
G02*
X218843953Y-99777999I-252261J431710D01*
G01*
X219096211Y-99709700D02*
G75*
G02*
X219798984Y-100358279I252258J-431701D01*
G01*
X219749499Y-100575157D02*
G75*
G02*
X219798984Y-100358279I499990J2D01*
G01*
X219798984Y-102197719D02*
G75*
G02*
X219096211Y-102846296I-450515J-216877D01*
G01*
X219798984Y-102197719D02*
G75*
G02*
X219749499Y-101980842I450505J216876D01*
G01*
%TO.C,D315*%
X57636071Y-83424809D02*
X57636071Y-84830493D01*
X58541618Y-85627651D02*
X60130522Y-85627651D01*
X60130522Y-82627652D02*
X58541617Y-82627652D01*
X61036069Y-84830493D02*
X61036069Y-83424809D01*
X57586586Y-83207931D02*
G75*
G02*
X57636089Y-83424808I-450516J-216921D01*
G01*
X57586586Y-83207931D02*
G75*
G02*
X58289359Y-82559352I450514J216879D01*
G01*
X57636071Y-84830493D02*
G75*
G02*
X57586585Y-85047370I-499991J1D01*
G01*
X58289359Y-85695950D02*
G75*
G02*
X57586589Y-85047371I-252259J431698D01*
G01*
X58289359Y-85695950D02*
G75*
G02*
X58541618Y-85627651I252261J-431712D01*
G01*
X58541617Y-82627652D02*
G75*
G02*
X58289359Y-82559353I3J500010D01*
G01*
X60130522Y-85627651D02*
G75*
G02*
X60382780Y-85695950I-3J-500009D01*
G01*
X60382781Y-82559352D02*
G75*
G02*
X60130523Y-82627651I-252261J431710D01*
G01*
X60382781Y-82559352D02*
G75*
G02*
X61085554Y-83207931I252258J-431701D01*
G01*
X61036069Y-83424809D02*
G75*
G02*
X61085554Y-83207931I499990J2D01*
G01*
X61085554Y-85047371D02*
G75*
G02*
X60382781Y-85695948I-450515J-216877D01*
G01*
X61085554Y-85047371D02*
G75*
G02*
X61036069Y-84830494I450505J216876D01*
G01*
%TO.C,D312*%
X114786071Y-81564309D02*
X114786071Y-82969993D01*
X115691618Y-83767151D02*
X117280522Y-83767151D01*
X117280522Y-80767152D02*
X115691617Y-80767152D01*
X118186069Y-82969993D02*
X118186069Y-81564309D01*
X114736586Y-81347431D02*
G75*
G02*
X114786089Y-81564308I-450516J-216921D01*
G01*
X114736586Y-81347431D02*
G75*
G02*
X115439359Y-80698852I450514J216879D01*
G01*
X114786071Y-82969993D02*
G75*
G02*
X114736585Y-83186870I-499991J1D01*
G01*
X115439359Y-83835450D02*
G75*
G02*
X114736589Y-83186871I-252259J431698D01*
G01*
X115439359Y-83835450D02*
G75*
G02*
X115691618Y-83767151I252261J-431712D01*
G01*
X115691617Y-80767152D02*
G75*
G02*
X115439359Y-80698853I3J500010D01*
G01*
X117280522Y-83767151D02*
G75*
G02*
X117532780Y-83835450I-3J-500009D01*
G01*
X117532781Y-80698852D02*
G75*
G02*
X117280523Y-80767151I-252261J431710D01*
G01*
X117532781Y-80698852D02*
G75*
G02*
X118235554Y-81347431I252258J-431701D01*
G01*
X118186069Y-81564309D02*
G75*
G02*
X118235554Y-81347431I499990J2D01*
G01*
X118235554Y-83186871D02*
G75*
G02*
X117532781Y-83835448I-450515J-216877D01*
G01*
X118235554Y-83186871D02*
G75*
G02*
X118186069Y-82969994I450505J216876D01*
G01*
%TO.C,D204*%
X216349501Y-43425159D02*
X216349501Y-44830843D01*
X217255048Y-45628000D02*
X218843953Y-45628000D01*
X218843952Y-42628001D02*
X217255048Y-42628001D01*
X219749499Y-44830843D02*
X219749499Y-43425159D01*
X216300016Y-43208281D02*
G75*
G02*
X216349501Y-43425158I-450505J-216876D01*
G01*
X216300016Y-43208281D02*
G75*
G02*
X217002789Y-42559704I450515J216877D01*
G01*
X216349501Y-44830843D02*
G75*
G02*
X216300016Y-45047721I-499990J-2D01*
G01*
X217002789Y-45696300D02*
G75*
G02*
X216300016Y-45047721I-252258J431701D01*
G01*
X217002789Y-45696300D02*
G75*
G02*
X217255047Y-45628001I252261J-431710D01*
G01*
X217255048Y-42628001D02*
G75*
G02*
X217002790Y-42559702I3J500009D01*
G01*
X218843953Y-45628000D02*
G75*
G02*
X219096211Y-45696299I-3J-500010D01*
G01*
X219096211Y-42559702D02*
G75*
G02*
X218843952Y-42628001I-252261J431712D01*
G01*
X219096211Y-42559702D02*
G75*
G02*
X219798981Y-43208281I252259J-431698D01*
G01*
X219749499Y-43425159D02*
G75*
G02*
X219798985Y-43208282I499991J-1D01*
G01*
X219798984Y-45047721D02*
G75*
G02*
X219096211Y-45696300I-450514J-216879D01*
G01*
X219798984Y-45047721D02*
G75*
G02*
X219749481Y-44830844I450516J216921D01*
G01*
%TO.C,D316*%
X133836071Y-105332311D02*
X133836071Y-106737995D01*
X134741618Y-107535152D02*
X136330523Y-107535152D01*
X136330522Y-104535153D02*
X134741618Y-104535153D01*
X137236069Y-106737995D02*
X137236069Y-105332311D01*
X133786586Y-105115433D02*
G75*
G02*
X133836071Y-105332310I-450505J-216876D01*
G01*
X133786586Y-105115433D02*
G75*
G02*
X134489359Y-104466856I450515J216877D01*
G01*
X133836071Y-106737995D02*
G75*
G02*
X133786586Y-106954873I-499990J-2D01*
G01*
X134489359Y-107603452D02*
G75*
G02*
X133786586Y-106954873I-252258J431701D01*
G01*
X134489359Y-107603452D02*
G75*
G02*
X134741617Y-107535153I252261J-431710D01*
G01*
X134741618Y-104535153D02*
G75*
G02*
X134489360Y-104466854I3J500009D01*
G01*
X136330523Y-107535152D02*
G75*
G02*
X136582781Y-107603451I-3J-500010D01*
G01*
X136582781Y-104466854D02*
G75*
G02*
X136330522Y-104535153I-252261J431712D01*
G01*
X136582781Y-104466854D02*
G75*
G02*
X137285551Y-105115433I252259J-431698D01*
G01*
X137236069Y-105332311D02*
G75*
G02*
X137285555Y-105115434I499991J-1D01*
G01*
X137285554Y-106954873D02*
G75*
G02*
X136582781Y-107603452I-450514J-216879D01*
G01*
X137285554Y-106954873D02*
G75*
G02*
X137236051Y-106737996I450516J216921D01*
G01*
%TO.C,D220*%
X235399501Y-102480157D02*
X235399501Y-103885841D01*
X236305048Y-104682999D02*
X237893952Y-104682999D01*
X237893952Y-101683000D02*
X236305047Y-101683000D01*
X238799499Y-103885841D02*
X238799499Y-102480157D01*
X235350016Y-102263279D02*
G75*
G02*
X235399519Y-102480156I-450516J-216921D01*
G01*
X235350016Y-102263279D02*
G75*
G02*
X236052789Y-101614700I450514J216879D01*
G01*
X235399501Y-103885841D02*
G75*
G02*
X235350015Y-104102718I-499991J1D01*
G01*
X236052789Y-104751298D02*
G75*
G02*
X235350019Y-104102719I-252259J431698D01*
G01*
X236052789Y-104751298D02*
G75*
G02*
X236305048Y-104682999I252261J-431712D01*
G01*
X236305047Y-101683000D02*
G75*
G02*
X236052789Y-101614701I3J500010D01*
G01*
X237893952Y-104682999D02*
G75*
G02*
X238146210Y-104751298I-3J-500009D01*
G01*
X238146211Y-101614700D02*
G75*
G02*
X237893953Y-101682999I-252261J431710D01*
G01*
X238146211Y-101614700D02*
G75*
G02*
X238848984Y-102263279I252258J-431701D01*
G01*
X238799499Y-102480157D02*
G75*
G02*
X238848984Y-102263279I499990J2D01*
G01*
X238848984Y-104102719D02*
G75*
G02*
X238146211Y-104751296I-450515J-216877D01*
G01*
X238848984Y-104102719D02*
G75*
G02*
X238799499Y-103885842I450505J216876D01*
G01*
%TO.C,D206*%
X159199501Y-67237657D02*
X159199501Y-68643341D01*
X160105048Y-69440499D02*
X161693952Y-69440499D01*
X161693952Y-66440500D02*
X160105047Y-66440500D01*
X162599499Y-68643341D02*
X162599499Y-67237657D01*
X159150016Y-67020779D02*
G75*
G02*
X159199519Y-67237656I-450516J-216921D01*
G01*
X159150016Y-67020779D02*
G75*
G02*
X159852789Y-66372200I450514J216879D01*
G01*
X159199501Y-68643341D02*
G75*
G02*
X159150015Y-68860218I-499991J1D01*
G01*
X159852789Y-69508798D02*
G75*
G02*
X159150019Y-68860219I-252259J431698D01*
G01*
X159852789Y-69508798D02*
G75*
G02*
X160105048Y-69440499I252261J-431712D01*
G01*
X160105047Y-66440500D02*
G75*
G02*
X159852789Y-66372201I3J500010D01*
G01*
X161693952Y-69440499D02*
G75*
G02*
X161946210Y-69508798I-3J-500009D01*
G01*
X161946211Y-66372200D02*
G75*
G02*
X161693953Y-66440499I-252261J431710D01*
G01*
X161946211Y-66372200D02*
G75*
G02*
X162648984Y-67020779I252258J-431701D01*
G01*
X162599499Y-67237657D02*
G75*
G02*
X162648984Y-67020779I499990J2D01*
G01*
X162648984Y-68860219D02*
G75*
G02*
X161946211Y-69508796I-450515J-216877D01*
G01*
X162648984Y-68860219D02*
G75*
G02*
X162599499Y-68643342I450505J216876D01*
G01*
%TO.C,D301*%
X133836071Y-48182309D02*
X133836071Y-49587993D01*
X134741618Y-50385151D02*
X136330522Y-50385151D01*
X136330522Y-47385152D02*
X134741617Y-47385152D01*
X137236069Y-49587993D02*
X137236069Y-48182309D01*
X133786586Y-47965431D02*
G75*
G02*
X133836089Y-48182308I-450516J-216921D01*
G01*
X133786586Y-47965431D02*
G75*
G02*
X134489359Y-47316852I450514J216879D01*
G01*
X133836071Y-49587993D02*
G75*
G02*
X133786585Y-49804870I-499991J1D01*
G01*
X134489359Y-50453450D02*
G75*
G02*
X133786589Y-49804871I-252259J431698D01*
G01*
X134489359Y-50453450D02*
G75*
G02*
X134741618Y-50385151I252261J-431712D01*
G01*
X134741617Y-47385152D02*
G75*
G02*
X134489359Y-47316853I3J500010D01*
G01*
X136330522Y-50385151D02*
G75*
G02*
X136582780Y-50453450I-3J-500009D01*
G01*
X136582781Y-47316852D02*
G75*
G02*
X136330523Y-47385151I-252261J431710D01*
G01*
X136582781Y-47316852D02*
G75*
G02*
X137285554Y-47965431I252258J-431701D01*
G01*
X137236069Y-48182309D02*
G75*
G02*
X137285554Y-47965431I499990J2D01*
G01*
X137285554Y-49804871D02*
G75*
G02*
X136582781Y-50453448I-450515J-216877D01*
G01*
X137285554Y-49804871D02*
G75*
G02*
X137236069Y-49587994I450505J216876D01*
G01*
%TO.C,D205*%
X235399501Y-45330159D02*
X235399501Y-46735843D01*
X236305048Y-47533000D02*
X237893953Y-47533000D01*
X237893952Y-44533001D02*
X236305048Y-44533001D01*
X238799499Y-46735843D02*
X238799499Y-45330159D01*
X235350016Y-45113281D02*
G75*
G02*
X235399501Y-45330158I-450505J-216876D01*
G01*
X235350016Y-45113281D02*
G75*
G02*
X236052789Y-44464704I450515J216877D01*
G01*
X235399501Y-46735843D02*
G75*
G02*
X235350016Y-46952721I-499990J-2D01*
G01*
X236052789Y-47601300D02*
G75*
G02*
X235350016Y-46952721I-252258J431701D01*
G01*
X236052789Y-47601300D02*
G75*
G02*
X236305047Y-47533001I252261J-431710D01*
G01*
X236305048Y-44533001D02*
G75*
G02*
X236052790Y-44464702I3J500009D01*
G01*
X237893953Y-47533000D02*
G75*
G02*
X238146211Y-47601299I-3J-500010D01*
G01*
X238146211Y-44464702D02*
G75*
G02*
X237893952Y-44533001I-252261J431712D01*
G01*
X238146211Y-44464702D02*
G75*
G02*
X238848981Y-45113281I252259J-431698D01*
G01*
X238799499Y-45330159D02*
G75*
G02*
X238848985Y-45113282I499991J-1D01*
G01*
X238848984Y-46952721D02*
G75*
G02*
X238146211Y-47601300I-450514J-216879D01*
G01*
X238848984Y-46952721D02*
G75*
G02*
X238799481Y-46735844I450516J216921D01*
G01*
%TO.C,D303*%
X95736071Y-38657309D02*
X95736071Y-40062993D01*
X96641618Y-40860151D02*
X98230522Y-40860151D01*
X98230522Y-37860152D02*
X96641617Y-37860152D01*
X99136069Y-40062993D02*
X99136069Y-38657309D01*
X95686586Y-38440431D02*
G75*
G02*
X95736089Y-38657308I-450516J-216921D01*
G01*
X95686586Y-38440431D02*
G75*
G02*
X96389359Y-37791852I450514J216879D01*
G01*
X95736071Y-40062993D02*
G75*
G02*
X95686585Y-40279870I-499991J1D01*
G01*
X96389359Y-40928450D02*
G75*
G02*
X95686589Y-40279871I-252259J431698D01*
G01*
X96389359Y-40928450D02*
G75*
G02*
X96641618Y-40860151I252261J-431712D01*
G01*
X96641617Y-37860152D02*
G75*
G02*
X96389359Y-37791853I3J500010D01*
G01*
X98230522Y-40860151D02*
G75*
G02*
X98482780Y-40928450I-3J-500009D01*
G01*
X98482781Y-37791852D02*
G75*
G02*
X98230523Y-37860151I-252261J431710D01*
G01*
X98482781Y-37791852D02*
G75*
G02*
X99185554Y-38440431I252258J-431701D01*
G01*
X99136069Y-38657309D02*
G75*
G02*
X99185554Y-38440431I499990J2D01*
G01*
X99185554Y-40279871D02*
G75*
G02*
X98482781Y-40928448I-450515J-216877D01*
G01*
X99185554Y-40279871D02*
G75*
G02*
X99136069Y-40062994I450505J216876D01*
G01*
%TO.C,D310*%
X57636071Y-64374811D02*
X57636071Y-65780495D01*
X58541618Y-66577652D02*
X60130523Y-66577652D01*
X60130522Y-63577653D02*
X58541618Y-63577653D01*
X61036069Y-65780495D02*
X61036069Y-64374811D01*
X57586586Y-64157933D02*
G75*
G02*
X57636071Y-64374810I-450505J-216876D01*
G01*
X57586586Y-64157933D02*
G75*
G02*
X58289359Y-63509356I450515J216877D01*
G01*
X57636071Y-65780495D02*
G75*
G02*
X57586586Y-65997373I-499990J-2D01*
G01*
X58289359Y-66645952D02*
G75*
G02*
X57586586Y-65997373I-252258J431701D01*
G01*
X58289359Y-66645952D02*
G75*
G02*
X58541617Y-66577653I252261J-431710D01*
G01*
X58541618Y-63577653D02*
G75*
G02*
X58289360Y-63509354I3J500009D01*
G01*
X60130523Y-66577652D02*
G75*
G02*
X60382781Y-66645951I-3J-500010D01*
G01*
X60382781Y-63509354D02*
G75*
G02*
X60130522Y-63577653I-252261J431712D01*
G01*
X60382781Y-63509354D02*
G75*
G02*
X61085551Y-64157933I252259J-431698D01*
G01*
X61036069Y-64374811D02*
G75*
G02*
X61085555Y-64157934I499991J-1D01*
G01*
X61085554Y-65997373D02*
G75*
G02*
X60382781Y-66645952I-450514J-216879D01*
G01*
X61085554Y-65997373D02*
G75*
G02*
X61036051Y-65780496I450516J216921D01*
G01*
%TO.C,H10*%
X147286077Y-84350652D02*
G75*
G02*
X149286077Y-84350652I1000000J0D01*
G01*
X149286077Y-80350652D02*
G75*
G02*
X147286077Y-80350652I-1000000J0D01*
G01*
%TO.C,D215*%
X235399501Y-83430159D02*
X235399501Y-84835843D01*
X236305048Y-85633000D02*
X237893953Y-85633000D01*
X237893952Y-82633001D02*
X236305048Y-82633001D01*
X238799499Y-84835843D02*
X238799499Y-83430159D01*
X235350016Y-83213281D02*
G75*
G02*
X235399501Y-83430158I-450505J-216876D01*
G01*
X235350016Y-83213281D02*
G75*
G02*
X236052789Y-82564704I450515J216877D01*
G01*
X235399501Y-84835843D02*
G75*
G02*
X235350016Y-85052721I-499990J-2D01*
G01*
X236052789Y-85701300D02*
G75*
G02*
X235350016Y-85052721I-252258J431701D01*
G01*
X236052789Y-85701300D02*
G75*
G02*
X236305047Y-85633001I252261J-431710D01*
G01*
X236305048Y-82633001D02*
G75*
G02*
X236052790Y-82564702I3J500009D01*
G01*
X237893953Y-85633000D02*
G75*
G02*
X238146211Y-85701299I-3J-500010D01*
G01*
X238146211Y-82564702D02*
G75*
G02*
X237893952Y-82633001I-252261J431712D01*
G01*
X238146211Y-82564702D02*
G75*
G02*
X238848981Y-83213281I252259J-431698D01*
G01*
X238799499Y-83430159D02*
G75*
G02*
X238848985Y-83213282I499991J-1D01*
G01*
X238848984Y-85052721D02*
G75*
G02*
X238146211Y-85701300I-450514J-216879D01*
G01*
X238848984Y-85052721D02*
G75*
G02*
X238799481Y-84835844I450516J216921D01*
G01*
%TO.C,D321*%
X63235474Y-124410411D02*
X63479568Y-125794741D01*
X64509782Y-126422539D02*
X66074549Y-126146629D01*
X65553604Y-123192207D02*
X63988839Y-123468117D01*
X66827913Y-125204337D02*
X66583818Y-123820008D01*
X63149080Y-124205421D02*
G75*
G02*
X63235475Y-124410410I-406054J-291836D01*
G01*
X63149080Y-124205421D02*
G75*
G02*
X63728551Y-123444663I406013J291810D01*
G01*
X63479568Y-125794741D02*
G75*
G02*
X63468496Y-126016916I-492421J-86824D01*
G01*
X63988839Y-123468117D02*
G75*
G02*
X63728553Y-123444661I-86827J492397D01*
G01*
X64273216Y-126533605D02*
G75*
G02*
X63468497Y-126016916I-323390J381336D01*
G01*
X64273216Y-126533605D02*
G75*
G02*
X64509782Y-126422540I323422J-381410D01*
G01*
X65790170Y-123081141D02*
G75*
G02*
X65553604Y-123192208I-323393J381338D01*
G01*
X65790170Y-123081141D02*
G75*
G02*
X66594889Y-123597832I323390J-381336D01*
G01*
X66074549Y-126146629D02*
G75*
G02*
X66334834Y-126170086I86823J-492415D01*
G01*
X66583818Y-123820008D02*
G75*
G02*
X66594891Y-123597832I492405J86823D01*
G01*
X66914307Y-125409326D02*
G75*
G02*
X66334834Y-126170086I-406010J-291814D01*
G01*
X66914307Y-125409326D02*
G75*
G02*
X66827929Y-125204334I405922J291740D01*
G01*
%TO.C,D203*%
X197299501Y-38662659D02*
X197299501Y-40068343D01*
X198205048Y-40865500D02*
X199793953Y-40865500D01*
X199793952Y-37865501D02*
X198205048Y-37865501D01*
X200699499Y-40068343D02*
X200699499Y-38662659D01*
X197250016Y-38445781D02*
G75*
G02*
X197299501Y-38662658I-450505J-216876D01*
G01*
X197250016Y-38445781D02*
G75*
G02*
X197952789Y-37797204I450515J216877D01*
G01*
X197299501Y-40068343D02*
G75*
G02*
X197250016Y-40285221I-499990J-2D01*
G01*
X197952789Y-40933800D02*
G75*
G02*
X197250016Y-40285221I-252258J431701D01*
G01*
X197952789Y-40933800D02*
G75*
G02*
X198205047Y-40865501I252261J-431710D01*
G01*
X198205048Y-37865501D02*
G75*
G02*
X197952790Y-37797202I3J500009D01*
G01*
X199793953Y-40865500D02*
G75*
G02*
X200046211Y-40933799I-3J-500010D01*
G01*
X200046211Y-37797202D02*
G75*
G02*
X199793952Y-37865501I-252261J431712D01*
G01*
X200046211Y-37797202D02*
G75*
G02*
X200748981Y-38445781I252259J-431698D01*
G01*
X200699499Y-38662659D02*
G75*
G02*
X200748985Y-38445782I499991J-1D01*
G01*
X200748984Y-40285221D02*
G75*
G02*
X200046211Y-40933800I-450514J-216879D01*
G01*
X200748984Y-40285221D02*
G75*
G02*
X200699481Y-40068344I450516J216921D01*
G01*
%TO.C,D318*%
X95736071Y-95807311D02*
X95736071Y-97212995D01*
X96641618Y-98010152D02*
X98230523Y-98010152D01*
X98230522Y-95010153D02*
X96641618Y-95010153D01*
X99136069Y-97212995D02*
X99136069Y-95807311D01*
X95686586Y-95590433D02*
G75*
G02*
X95736071Y-95807310I-450505J-216876D01*
G01*
X95686586Y-95590433D02*
G75*
G02*
X96389359Y-94941856I450515J216877D01*
G01*
X95736071Y-97212995D02*
G75*
G02*
X95686586Y-97429873I-499990J-2D01*
G01*
X96389359Y-98078452D02*
G75*
G02*
X95686586Y-97429873I-252258J431701D01*
G01*
X96389359Y-98078452D02*
G75*
G02*
X96641617Y-98010153I252261J-431710D01*
G01*
X96641618Y-95010153D02*
G75*
G02*
X96389360Y-94941854I3J500009D01*
G01*
X98230523Y-98010152D02*
G75*
G02*
X98482781Y-98078451I-3J-500010D01*
G01*
X98482781Y-94941854D02*
G75*
G02*
X98230522Y-95010153I-252261J431712D01*
G01*
X98482781Y-94941854D02*
G75*
G02*
X99185551Y-95590433I252259J-431698D01*
G01*
X99136069Y-95807311D02*
G75*
G02*
X99185555Y-95590434I499991J-1D01*
G01*
X99185554Y-97429873D02*
G75*
G02*
X98482781Y-98078452I-450514J-216879D01*
G01*
X99185554Y-97429873D02*
G75*
G02*
X99136051Y-97212996I450516J216921D01*
G01*
%TO.C,D307*%
X114786071Y-62469811D02*
X114786071Y-63875495D01*
X115691618Y-64672652D02*
X117280523Y-64672652D01*
X117280522Y-61672653D02*
X115691618Y-61672653D01*
X118186069Y-63875495D02*
X118186069Y-62469811D01*
X114736586Y-62252933D02*
G75*
G02*
X114786071Y-62469810I-450505J-216876D01*
G01*
X114736586Y-62252933D02*
G75*
G02*
X115439359Y-61604356I450515J216877D01*
G01*
X114786071Y-63875495D02*
G75*
G02*
X114736586Y-64092373I-499990J-2D01*
G01*
X115439359Y-64740952D02*
G75*
G02*
X114736586Y-64092373I-252258J431701D01*
G01*
X115439359Y-64740952D02*
G75*
G02*
X115691617Y-64672653I252261J-431710D01*
G01*
X115691618Y-61672653D02*
G75*
G02*
X115439360Y-61604354I3J500009D01*
G01*
X117280523Y-64672652D02*
G75*
G02*
X117532781Y-64740951I-3J-500010D01*
G01*
X117532781Y-61604354D02*
G75*
G02*
X117280522Y-61672653I-252261J431712D01*
G01*
X117532781Y-61604354D02*
G75*
G02*
X118235551Y-62252933I252259J-431698D01*
G01*
X118186069Y-62469811D02*
G75*
G02*
X118235555Y-62252934I499991J-1D01*
G01*
X118235554Y-64092373D02*
G75*
G02*
X117532781Y-64740952I-450514J-216879D01*
G01*
X118235554Y-64092373D02*
G75*
G02*
X118186051Y-63875496I450516J216921D01*
G01*
%TD*%
M02*
