%TF.GenerationSoftware,KiCad,Pcbnew,9.0.7*%
%TF.CreationDate,2026-03-29T21:17:25+05:30*%
%TF.ProjectId,epsilon,65707369-6c6f-46e2-9e6b-696361645f70,rev?*%
%TF.SameCoordinates,Original*%
%TF.FileFunction,Paste,Top*%
%TF.FilePolarity,Positive*%
%FSLAX46Y46*%
G04 Gerber Fmt 4.6, Leading zero omitted, Abs format (unit mm)*
G04 Created by KiCad (PCBNEW 9.0.7) date 2026-03-29 21:17:25*
%MOMM*%
%LPD*%
G01*
G04 APERTURE LIST*
G04 Aperture macros list*
%AMRoundRect*
0 Rectangle with rounded corners*
0 $1 Rounding radius*
0 $2 $3 $4 $5 $6 $7 $8 $9 X,Y pos of 4 corners*
0 Add a 4 corners polygon primitive as box body*
4,1,4,$2,$3,$4,$5,$6,$7,$8,$9,$2,$3,0*
0 Add four circle primitives for the rounded corners*
1,1,$1+$1,$2,$3*
1,1,$1+$1,$4,$5*
1,1,$1+$1,$6,$7*
1,1,$1+$1,$8,$9*
0 Add four rect primitives between the rounded corners*
20,1,$1+$1,$2,$3,$4,$5,0*
20,1,$1+$1,$4,$5,$6,$7,0*
20,1,$1+$1,$6,$7,$8,$9,0*
20,1,$1+$1,$8,$9,$2,$3,0*%
%AMFreePoly0*
4,1,18,-0.410000,0.265000,0.000000,0.675000,0.328000,0.675000,0.359380,0.668758,0.385983,0.650983,0.403758,0.624380,0.410000,0.593000,0.410000,-0.593000,0.403758,-0.624380,0.385983,-0.650983,0.359380,-0.668758,0.328000,-0.675000,-0.328000,-0.675000,-0.359380,-0.668758,-0.385983,-0.650983,-0.403758,-0.624380,-0.410000,-0.593000,-0.410000,0.265000,-0.410000,0.265000,$1*%
G04 Aperture macros list end*
%ADD10RoundRect,0.225000X-0.375000X0.225000X-0.375000X-0.225000X0.375000X-0.225000X0.375000X0.225000X0*%
%ADD11RoundRect,0.260000X-1.065000X-1.040000X1.065000X-1.040000X1.065000X1.040000X-1.065000X1.040000X0*%
%ADD12RoundRect,0.082000X-0.593000X0.328000X-0.593000X-0.328000X0.593000X-0.328000X0.593000X0.328000X0*%
%ADD13FreePoly0,270.000000*%
%ADD14RoundRect,0.082000X-0.665099X-0.129910X-0.243430X-0.632436X0.665099X0.129910X0.243430X0.632436X0*%
%ADD15FreePoly0,310.000000*%
%ADD16RoundRect,0.082000X0.593000X-0.328000X0.593000X0.328000X-0.593000X0.328000X-0.593000X-0.328000X0*%
%ADD17FreePoly0,90.000000*%
%ADD18RoundRect,0.225000X-0.142639X0.413405X-0.431894X0.068685X0.142639X-0.413405X0.431894X-0.068685X0*%
%ADD19RoundRect,0.250000X-0.262500X-0.450000X0.262500X-0.450000X0.262500X0.450000X-0.262500X0.450000X0*%
%ADD20RoundRect,0.082000X-0.527034X0.425990X-0.640948X-0.220044X0.527034X-0.425990X0.640948X0.220044X0*%
%ADD21FreePoly0,260.000000*%
%ADD22RoundRect,0.225000X0.408374X-0.156464X0.330232X0.286700X-0.408374X0.156464X-0.330232X-0.286700X0*%
%ADD23RoundRect,0.500000X-0.875000X-0.500000X0.875000X-0.500000X0.875000X0.500000X-0.875000X0.500000X0*%
%ADD24RoundRect,0.275000X-0.275000X0.975000X-0.275000X-0.975000X0.275000X-0.975000X0.275000X0.975000X0*%
%ADD25C,1.700000*%
%ADD26RoundRect,0.082000X-0.243430X0.632436X-0.665099X0.129910X0.243430X-0.632436X0.665099X-0.129910X0*%
%ADD27FreePoly0,230.000000*%
%ADD28RoundRect,0.260000X-0.868226X-1.209135X1.229414X-0.839265X0.868226X1.209135X-1.229414X0.839265X0*%
%ADD29RoundRect,0.260000X-1.229414X-0.839265X0.868226X-1.209135X1.229414X0.839265X-0.868226X1.209135X0*%
%ADD30RoundRect,0.082000X-0.640948X0.220044X-0.527034X-0.425990X0.640948X-0.220044X0.527034X0.425990X0*%
%ADD31FreePoly0,280.000000*%
%ADD32RoundRect,0.260000X-1.484336X-0.112117X0.147338X-1.481255X1.484336X0.112117X-0.147338X1.481255X0*%
%ADD33RoundRect,0.225000X0.431894X0.068685X0.142639X0.413405X-0.431894X-0.068685X-0.142639X-0.413405X0*%
%ADD34RoundRect,0.260000X-0.147338X-1.481255X1.484336X-0.112117X0.147338X1.481255X-1.484336X0.112117X0*%
%ADD35RoundRect,0.225000X-0.330232X0.286700X-0.408374X-0.156464X0.330232X-0.286700X0.408374X0.156464X0*%
G04 APERTURE END LIST*
D10*
%TO.C,D40*%
X51173126Y-110849152D03*
X51173126Y-114149152D03*
%TD*%
D11*
%TO.C,SW30*%
X67581070Y-92577652D03*
X56091070Y-94777652D03*
%TD*%
D10*
%TO.C,D32*%
X127347796Y-113728129D03*
X127347796Y-117028129D03*
%TD*%
D11*
%TO.C,SW22*%
X143781070Y-95435152D03*
X132291070Y-97635152D03*
%TD*%
D10*
%TO.C,D25*%
X190741073Y-85200033D03*
X190741073Y-88500033D03*
%TD*%
%TO.C,D23*%
X171824053Y-89980607D03*
X171824053Y-93280607D03*
%TD*%
D12*
%TO.C,D213*%
X196274500Y-78215500D03*
X196274500Y-76715500D03*
X201724500Y-78215500D03*
D13*
X201724500Y-76715500D03*
%TD*%
D14*
%TO.C,D322*%
X39070223Y-138730289D03*
X38106042Y-137581221D03*
X43245166Y-135227097D03*
D15*
X42280985Y-134078029D03*
%TD*%
D16*
%TO.C,D208*%
X201724500Y-57665500D03*
X201724500Y-59165500D03*
X196274500Y-57665500D03*
D17*
X196274500Y-59165500D03*
%TD*%
D11*
%TO.C,SW3*%
X188194500Y-52578000D03*
X176704500Y-54778000D03*
%TD*%
D10*
%TO.C,D17*%
X209673000Y-70809500D03*
X209673000Y-74109500D03*
%TD*%
%TO.C,D28*%
X70367188Y-89966024D03*
X70367188Y-93266024D03*
%TD*%
D16*
%TO.C,D207*%
X182674500Y-62428000D03*
X182674500Y-63928000D03*
X177224500Y-62428000D03*
D17*
X177224500Y-63928000D03*
%TD*%
D10*
%TO.C,D38*%
X70192783Y-108953492D03*
X70192783Y-112253492D03*
%TD*%
D11*
%TO.C,SW16*%
X105681070Y-66860152D03*
X94191070Y-69060152D03*
%TD*%
D16*
%TO.C,D313*%
X100161070Y-76710152D03*
X100161070Y-78210152D03*
X94711070Y-76710152D03*
D17*
X94711070Y-78210152D03*
%TD*%
D16*
%TO.C,D302*%
X119211070Y-43372652D03*
X119211070Y-44872652D03*
X113761070Y-43372652D03*
D17*
X113761070Y-44872652D03*
%TD*%
D18*
%TO.C,D43*%
X244718063Y-137086186D03*
X242596863Y-139614132D03*
%TD*%
D16*
%TO.C,D217*%
X182674500Y-100572500D03*
X182674500Y-102072500D03*
X177224500Y-100572500D03*
D17*
X177224500Y-102072500D03*
%TD*%
D10*
%TO.C,D20*%
X51338560Y-72778544D03*
X51338560Y-76078544D03*
%TD*%
D16*
%TO.C,D210*%
X239824500Y-64333000D03*
X239824500Y-65833000D03*
X234374500Y-64333000D03*
D17*
X234374500Y-65833000D03*
%TD*%
D16*
%TO.C,D304*%
X81111070Y-43372652D03*
X81111070Y-44872652D03*
X75661070Y-43372652D03*
D17*
X75661070Y-44872652D03*
%TD*%
D10*
%TO.C,D2*%
X127398983Y-56589210D03*
X127398983Y-59889210D03*
%TD*%
D11*
%TO.C,SW39*%
X245344500Y-111633000D03*
X233854500Y-113833000D03*
%TD*%
%TO.C,SW29*%
X245344500Y-92583000D03*
X233854500Y-94783000D03*
%TD*%
D12*
%TO.C,D201*%
X158174500Y-49640500D03*
X158174500Y-48140500D03*
X163624500Y-49640500D03*
D13*
X163624500Y-48140500D03*
%TD*%
D11*
%TO.C,SW2*%
X143781070Y-57335152D03*
X132291070Y-59535152D03*
%TD*%
%TO.C,SW27*%
X226294500Y-90678000D03*
X214804500Y-92878000D03*
%TD*%
D10*
%TO.C,D30*%
X51235526Y-91834745D03*
X51235526Y-95134745D03*
%TD*%
D16*
%TO.C,D314*%
X81111070Y-81472652D03*
X81111070Y-82972652D03*
X75661070Y-81472652D03*
D17*
X75661070Y-82972652D03*
%TD*%
D12*
%TO.C,D306*%
X132811070Y-68685152D03*
X132811070Y-67185152D03*
X138261070Y-68685152D03*
D13*
X138261070Y-67185152D03*
%TD*%
D19*
%TO.C,R4*%
X48052070Y-105340894D03*
X49877070Y-105340894D03*
%TD*%
D10*
%TO.C,D4*%
X108322070Y-51944652D03*
X108322070Y-55244652D03*
%TD*%
D16*
%TO.C,D209*%
X220774500Y-62428000D03*
X220774500Y-63928000D03*
X215324500Y-62428000D03*
D17*
X215324500Y-63928000D03*
%TD*%
D10*
%TO.C,D19*%
X228747010Y-72783892D03*
X228747010Y-76083892D03*
%TD*%
%TO.C,D3*%
X171763500Y-51950000D03*
X171763500Y-55250000D03*
%TD*%
D20*
%TO.C,D221*%
X228590040Y-125078136D03*
X228850512Y-123600924D03*
X233957242Y-126024518D03*
D21*
X234217714Y-124547306D03*
%TD*%
D11*
%TO.C,SW38*%
X86631070Y-109722652D03*
X75141070Y-111922652D03*
%TD*%
D22*
%TO.C,D42*%
X58859286Y-137047435D03*
X58286248Y-133797569D03*
%TD*%
D12*
%TO.C,D214*%
X215324500Y-82978000D03*
X215324500Y-81478000D03*
X220774500Y-82978000D03*
D13*
X220774500Y-81478000D03*
%TD*%
D16*
%TO.C,D311*%
X138261070Y-86235152D03*
X138261070Y-87735152D03*
X132811070Y-86235152D03*
D17*
X132811070Y-87735152D03*
%TD*%
D12*
%TO.C,D308*%
X94711070Y-59160152D03*
X94711070Y-57660152D03*
X100161070Y-59160152D03*
D13*
X100161070Y-57660152D03*
%TD*%
D16*
%TO.C,D216*%
X163624500Y-105290500D03*
X163624500Y-106790500D03*
X158174500Y-105290500D03*
D17*
X158174500Y-106790500D03*
%TD*%
D11*
%TO.C,SW34*%
X124731070Y-109767152D03*
X113241070Y-111967152D03*
%TD*%
%TO.C,SW31*%
X169144500Y-114490500D03*
X157654500Y-116690500D03*
%TD*%
%TO.C,SW7*%
X226294500Y-52578000D03*
X214804500Y-54778000D03*
%TD*%
D16*
%TO.C,D218*%
X201724500Y-95765500D03*
X201724500Y-97265500D03*
X196274500Y-95765500D03*
D17*
X196274500Y-97265500D03*
%TD*%
D12*
%TO.C,D320*%
X56611070Y-103927652D03*
X56611070Y-102427652D03*
X62061070Y-103927652D03*
D13*
X62061070Y-102427652D03*
%TD*%
D11*
%TO.C,SW36*%
X105681070Y-104960152D03*
X94191070Y-107160152D03*
%TD*%
D10*
%TO.C,D21*%
X152523000Y-94748000D03*
X152523000Y-98048000D03*
%TD*%
D23*
%TO.C,U1*%
X251196500Y-100263000D03*
X251196500Y-102803000D03*
X251196500Y-105343000D03*
X251196500Y-107883000D03*
X251196500Y-110423000D03*
X251196500Y-112963000D03*
X251196500Y-115503000D03*
X267361500Y-115503000D03*
X267361500Y-112963000D03*
X267361500Y-110423000D03*
X267361500Y-107883000D03*
X267361500Y-105343000D03*
X267361500Y-102803000D03*
X267361500Y-100263000D03*
D24*
X263061500Y-117119900D03*
X264966500Y-117119900D03*
D25*
X257981500Y-99314500D03*
X260521500Y-99314500D03*
X257981500Y-101854500D03*
X260521500Y-101854500D03*
%TD*%
D12*
%TO.C,D309*%
X75661070Y-63922652D03*
X75661070Y-62422652D03*
X81111070Y-63922652D03*
D13*
X81111070Y-62422652D03*
%TD*%
D10*
%TO.C,D5*%
X190663633Y-47073647D03*
X190663633Y-50373647D03*
%TD*%
D12*
%TO.C,D317*%
X113761070Y-102067152D03*
X113761070Y-100567152D03*
X119211070Y-102067152D03*
D13*
X119211070Y-100567152D03*
%TD*%
D10*
%TO.C,D13*%
X171763500Y-70935500D03*
X171763500Y-74235500D03*
%TD*%
D12*
%TO.C,D319*%
X75661070Y-102022652D03*
X75661070Y-100522652D03*
X81111070Y-102022652D03*
D13*
X81111070Y-100522652D03*
%TD*%
D10*
%TO.C,D37*%
X209892787Y-108958840D03*
X209892787Y-112258840D03*
%TD*%
D12*
%TO.C,D202*%
X177224500Y-44878000D03*
X177224500Y-43378000D03*
X182674500Y-44878000D03*
D13*
X182674500Y-43378000D03*
%TD*%
D11*
%TO.C,SW9*%
X245344500Y-54483000D03*
X233854500Y-56683000D03*
%TD*%
%TO.C,SW37*%
X226294500Y-109728000D03*
X214804500Y-111928000D03*
%TD*%
D10*
%TO.C,D29*%
X228850044Y-91840093D03*
X228850044Y-95140093D03*
%TD*%
D16*
%TO.C,D305*%
X62061070Y-45277652D03*
X62061070Y-46777652D03*
X56611070Y-45277652D03*
D17*
X56611070Y-46777652D03*
%TD*%
D11*
%TO.C,SW12*%
X143781070Y-76385152D03*
X132291070Y-78585152D03*
%TD*%
D10*
%TO.C,D35*%
X190723087Y-104194372D03*
X190723087Y-107494372D03*
%TD*%
%TO.C,D8*%
X70421541Y-51883306D03*
X70421541Y-55183306D03*
%TD*%
D11*
%TO.C,SW18*%
X86631070Y-71622652D03*
X75141070Y-73822652D03*
%TD*%
D12*
%TO.C,D211*%
X158174500Y-87740500D03*
X158174500Y-86240500D03*
X163624500Y-87740500D03*
D13*
X163624500Y-86240500D03*
%TD*%
D11*
%TO.C,SW32*%
X143781070Y-114485152D03*
X132291070Y-116685152D03*
%TD*%
%TO.C,SW17*%
X226294500Y-71628000D03*
X214804500Y-73828000D03*
%TD*%
D10*
%TO.C,D12*%
X127372070Y-75566652D03*
X127372070Y-78866652D03*
%TD*%
%TO.C,D15*%
X190813500Y-66237500D03*
X190813500Y-69537500D03*
%TD*%
D12*
%TO.C,D212*%
X177224500Y-83022500D03*
X177224500Y-81522500D03*
X182674500Y-83022500D03*
D13*
X182674500Y-81522500D03*
%TD*%
D23*
%TO.C,U2*%
X29019070Y-100257652D03*
X29019070Y-102797652D03*
X29019070Y-105337652D03*
X29019070Y-107877652D03*
X29019070Y-110417652D03*
X29019070Y-112957652D03*
X29019070Y-115497652D03*
X45184070Y-115497652D03*
X45184070Y-112957652D03*
X45184070Y-110417652D03*
X45184070Y-107877652D03*
X45184070Y-105337652D03*
X45184070Y-102797652D03*
X45184070Y-100257652D03*
D24*
X40884070Y-117114552D03*
X42789070Y-117114552D03*
D25*
X35804070Y-99309152D03*
X38344070Y-99309152D03*
X35804070Y-101849152D03*
X38344070Y-101849152D03*
%TD*%
D11*
%TO.C,SW25*%
X207244500Y-85915500D03*
X195754500Y-88115500D03*
%TD*%
%TO.C,SW4*%
X124731070Y-52572652D03*
X113241070Y-54772652D03*
%TD*%
D10*
%TO.C,D39*%
X228912444Y-110854500D03*
X228912444Y-114154500D03*
%TD*%
D11*
%TO.C,SW11*%
X169144500Y-76390500D03*
X157654500Y-78590500D03*
%TD*%
D26*
%TO.C,D222*%
X253190406Y-135232446D03*
X254154588Y-134083379D03*
X257365348Y-138735639D03*
D27*
X258329530Y-137586572D03*
%TD*%
D10*
%TO.C,D11*%
X152713500Y-75572000D03*
X152713500Y-78872000D03*
%TD*%
D28*
%TO.C,SW42*%
X74618759Y-131697268D03*
X63685344Y-135859063D03*
%TD*%
D10*
%TO.C,D22*%
X127562570Y-94742652D03*
X127562570Y-98042652D03*
%TD*%
D16*
%TO.C,D219*%
X220774500Y-100528000D03*
X220774500Y-102028000D03*
X215324500Y-100528000D03*
D17*
X215324500Y-102028000D03*
%TD*%
D11*
%TO.C,SW19*%
X245344500Y-73533000D03*
X233854500Y-75733000D03*
%TD*%
D10*
%TO.C,D26*%
X89344497Y-85194685D03*
X89344497Y-88494685D03*
%TD*%
D16*
%TO.C,D315*%
X62061070Y-83377652D03*
X62061070Y-84877652D03*
X56611070Y-83377652D03*
D17*
X56611070Y-84877652D03*
%TD*%
D16*
%TO.C,D312*%
X119211070Y-81517152D03*
X119211070Y-83017152D03*
X113761070Y-81517152D03*
D17*
X113761070Y-83017152D03*
%TD*%
D11*
%TO.C,SW14*%
X124731070Y-71622652D03*
X113241070Y-73822652D03*
%TD*%
%TO.C,SW40*%
X67581070Y-111627652D03*
X56091070Y-113827652D03*
%TD*%
D29*
%TO.C,SW41*%
X238056290Y-134566074D03*
X226358823Y-134737434D03*
%TD*%
D12*
%TO.C,D204*%
X215324500Y-44878000D03*
X215324500Y-43378000D03*
X220774500Y-44878000D03*
D13*
X220774500Y-43378000D03*
%TD*%
D11*
%TO.C,SW33*%
X188194500Y-109772500D03*
X176704500Y-111972500D03*
%TD*%
D12*
%TO.C,D316*%
X132811070Y-106785152D03*
X132811070Y-105285152D03*
X138261070Y-106785152D03*
D13*
X138261070Y-105285152D03*
%TD*%
D10*
%TO.C,D31*%
X152737774Y-113733477D03*
X152737774Y-117033477D03*
%TD*%
D16*
%TO.C,D220*%
X239824500Y-102433000D03*
X239824500Y-103933000D03*
X234374500Y-102433000D03*
D17*
X234374500Y-103933000D03*
%TD*%
D10*
%TO.C,D1*%
X152686587Y-56594558D03*
X152686587Y-59894558D03*
%TD*%
D16*
%TO.C,D206*%
X163624500Y-67190500D03*
X163624500Y-68690500D03*
X158174500Y-67190500D03*
D17*
X158174500Y-68690500D03*
%TD*%
D10*
%TO.C,D6*%
X89421937Y-47068299D03*
X89421937Y-50368299D03*
%TD*%
D16*
%TO.C,D301*%
X138261070Y-48135152D03*
X138261070Y-49635152D03*
X132811070Y-48135152D03*
D17*
X132811070Y-49635152D03*
%TD*%
D11*
%TO.C,SW26*%
X105681070Y-85910152D03*
X94191070Y-88110152D03*
%TD*%
%TO.C,SW28*%
X86631070Y-90672652D03*
X75141070Y-92872652D03*
%TD*%
D12*
%TO.C,D205*%
X234374500Y-46783000D03*
X234374500Y-45283000D03*
X239824500Y-46783000D03*
D13*
X239824500Y-45283000D03*
%TD*%
D10*
%TO.C,D36*%
X89362483Y-104189024D03*
X89362483Y-107489024D03*
%TD*%
D19*
%TO.C,R1*%
X245521500Y-101787000D03*
X247346500Y-101787000D03*
%TD*%
D16*
%TO.C,D303*%
X100161070Y-38610152D03*
X100161070Y-40110152D03*
X94711070Y-38610152D03*
D17*
X94711070Y-40110152D03*
%TD*%
D10*
%TO.C,D7*%
X209664029Y-51888654D03*
X209664029Y-55188654D03*
%TD*%
D12*
%TO.C,D310*%
X56611070Y-65827652D03*
X56611070Y-64327652D03*
X62061070Y-65827652D03*
D13*
X62061070Y-64327652D03*
%TD*%
D10*
%TO.C,D16*%
X89272070Y-66232152D03*
X89272070Y-69532152D03*
%TD*%
D11*
%TO.C,SW1*%
X169144500Y-57340500D03*
X157654500Y-59540500D03*
%TD*%
D10*
%TO.C,D24*%
X108261517Y-89975259D03*
X108261517Y-93275259D03*
%TD*%
D12*
%TO.C,D215*%
X234374500Y-84883000D03*
X234374500Y-83383000D03*
X239824500Y-84883000D03*
D13*
X239824500Y-83383000D03*
%TD*%
D10*
%TO.C,D10*%
X51179458Y-53739098D03*
X51179458Y-57039098D03*
%TD*%
D19*
%TO.C,R2*%
X48052070Y-101857552D03*
X49877070Y-101857552D03*
%TD*%
D11*
%TO.C,SW5*%
X207244500Y-47815500D03*
X195754500Y-50015500D03*
%TD*%
D30*
%TO.C,D321*%
X62478328Y-126019170D03*
X62217856Y-124541959D03*
X67845530Y-125072787D03*
D31*
X67585058Y-123595576D03*
%TD*%
D10*
%TO.C,D14*%
X108322070Y-70930152D03*
X108322070Y-74230152D03*
%TD*%
D11*
%TO.C,SW10*%
X67581070Y-54477652D03*
X56091070Y-56677652D03*
%TD*%
%TO.C,SW6*%
X105681070Y-47810152D03*
X94191070Y-50010152D03*
%TD*%
D32*
%TO.C,SW43*%
X256644449Y-148182367D03*
X246428466Y-142482035D03*
%TD*%
D11*
%TO.C,SW24*%
X124731070Y-90717152D03*
X113241070Y-92917152D03*
%TD*%
%TO.C,SW20*%
X67581070Y-73527652D03*
X56091070Y-75727652D03*
%TD*%
D10*
%TO.C,D34*%
X108464813Y-109005206D03*
X108464813Y-112305206D03*
%TD*%
D33*
%TO.C,D44*%
X39951092Y-148197368D03*
X37829894Y-145669420D03*
%TD*%
D34*
%TO.C,SW44*%
X52423194Y-137577451D03*
X45035476Y-146648378D03*
%TD*%
D10*
%TO.C,D18*%
X70412570Y-70804152D03*
X70412570Y-74104152D03*
%TD*%
%TO.C,D27*%
X209718382Y-89971372D03*
X209718382Y-93271372D03*
%TD*%
D11*
%TO.C,SW21*%
X169144500Y-95440500D03*
X157654500Y-97640500D03*
%TD*%
D19*
%TO.C,R3*%
X245521500Y-105270342D03*
X247346500Y-105270342D03*
%TD*%
D10*
%TO.C,D9*%
X228906112Y-53744446D03*
X228906112Y-57044446D03*
%TD*%
D11*
%TO.C,SW23*%
X188194500Y-90722500D03*
X176704500Y-92922500D03*
%TD*%
D10*
%TO.C,D33*%
X171620757Y-109010554D03*
X171620757Y-112310554D03*
%TD*%
D12*
%TO.C,D203*%
X196274500Y-40115500D03*
X196274500Y-38615500D03*
X201724500Y-40115500D03*
D13*
X201724500Y-38615500D03*
%TD*%
D11*
%TO.C,SW35*%
X207244500Y-104965500D03*
X195754500Y-107165500D03*
%TD*%
D12*
%TO.C,D318*%
X94711070Y-97260152D03*
X94711070Y-95760152D03*
X100161070Y-97260152D03*
D13*
X100161070Y-95760152D03*
%TD*%
D11*
%TO.C,SW15*%
X207244500Y-66865500D03*
X195754500Y-69065500D03*
%TD*%
%TO.C,SW13*%
X188194500Y-71628000D03*
X176704500Y-73828000D03*
%TD*%
%TO.C,SW8*%
X86631070Y-52572652D03*
X75141070Y-54772652D03*
%TD*%
D12*
%TO.C,D307*%
X113761070Y-63922652D03*
X113761070Y-62422652D03*
X119211070Y-63922652D03*
D13*
X119211070Y-62422652D03*
%TD*%
D35*
%TO.C,D41*%
X221947829Y-130853674D03*
X221374791Y-134103540D03*
%TD*%
M02*
