M48
; DRILL file {KiCad 9.0.7} date 2026-03-29T21:17:29+0530
; FORMAT={-:-/ absolute / metric / decimal}
; #@! TF.CreationDate,2026-03-29T21:17:29+05:30
; #@! TF.GenerationSoftware,Kicad,Pcbnew,9.0.7
; #@! TF.FileFunction,Plated,1,2,PTH
FMAT,2
METRIC
; #@! TA.AperFunction,Plated,PTH,ViaDrill
T1C0.300
; #@! TA.AperFunction,Plated,PTH,ComponentDrill
T2C2.500
; #@! TA.AperFunction,Plated,PTH,ComponentDrill
T3C3.000
%
G90
G05
T1
X33.927Y-101.221
X33.927Y-102.364
X34.549Y-110.78
X39.693Y-103.025
X42.741Y-114.518
X42.741Y-121.567
X45.068Y-133.405
X45.264Y-131.119
X46.788Y-132.833
X48.502Y-127.88
X49.877Y-103.85
X49.931Y-129.69
X52.456Y-103.85
X54.64Y-83.378
X55.034Y-45.278
X56.609Y-98.097
X56.611Y-48.415
X56.611Y-89.944
X56.647Y-58.702
X63.999Y-65.828
X63.999Y-103.928
X65.372Y-97.132
X65.372Y-97.945
X69.788Y-125.073
X71.651Y-118.666
X72.459Y-121.567
X73.411Y-81.473
X73.881Y-43.373
X83.049Y-63.923
X83.049Y-102.023
X92.652Y-76.71
X92.74Y-38.61
X102.064Y-97.26
X102.099Y-59.16
X104.737Y-98.516
X106.749Y-98.516
X109.388Y-79.684
X111.657Y-81.517
X111.79Y-43.373
X121.227Y-102.067
X121.339Y-63.923
X130.853Y-86.235
X131.044Y-48.135
X140.199Y-68.685
X140.277Y-105.285
X140.277Y-106.785
X140.848Y-45.382
X155.719Y-105.29
X156.029Y-67.191
X157.734Y-110.109
X158.211Y-45.377
X165.349Y-49.64
X165.409Y-87.74
X174.531Y-100.572
X174.636Y-62.428
X184.876Y-44.878
X184.981Y-83.022
X185.718Y-79.689
X188.331Y-103.282
X193.694Y-95.765
X193.874Y-57.665
X201.724Y-80.156
X203.574Y-40.115
X212.736Y-100.528
X213.036Y-62.428
X222.796Y-82.978
X222.865Y-44.878
X225.631Y-120.392
X226.081Y-126.532
X231.341Y-102.433
X232.321Y-64.333
X236.921Y-126.862
X239.538Y-98.082
X239.811Y-61.612
X239.825Y-48.109
X241.451Y-48.662
X242.051Y-84.883
X242.171Y-102.802
X242.411Y-83.392
X242.491Y-105.832
X243.109Y-105.322
X243.341Y-125.349
X247.938Y-120.206
X248.339Y-103.501
X249.13Y-102.803
X249.13Y-105.322
X249.13Y-107.883
X249.201Y-109.112
X251.107Y-131.036
X253.292Y-115.884
X253.292Y-119.008
X254.151Y-114.222
X255.197Y-115.884
X255.197Y-118.607
X258.762Y-140.132
X260.211Y-117.112
T2
X32.629Y-104.878
X32.629Y-108.278
X254.806Y-104.883
X254.806Y-108.283
T3
X47.521Y-144.563
X49.937Y-139.663
X59.336Y-56.678
X59.336Y-75.728
X59.336Y-94.778
X59.336Y-113.828
X64.336Y-54.478
X64.336Y-73.528
X64.336Y-92.578
X64.336Y-111.628
X66.881Y-135.296
X71.423Y-132.261
X78.386Y-54.773
X78.386Y-73.823
X78.386Y-92.873
X78.386Y-111.923
X83.386Y-52.573
X83.386Y-71.623
X83.386Y-90.673
X83.386Y-109.723
X97.436Y-50.01
X97.436Y-69.06
X97.436Y-88.11
X97.436Y-107.16
X102.436Y-47.81
X102.436Y-66.86
X102.436Y-85.91
X102.436Y-104.96
X116.486Y-54.773
X116.486Y-73.823
X116.486Y-92.917
X116.486Y-111.967
X121.486Y-52.573
X121.486Y-71.623
X121.486Y-90.717
X121.486Y-109.767
X135.536Y-59.535
X135.536Y-78.585
X135.536Y-97.635
X135.536Y-116.685
X140.536Y-57.335
X140.536Y-76.385
X140.536Y-95.435
X140.536Y-114.485
X160.899Y-59.54
X160.899Y-78.59
X160.899Y-97.64
X160.899Y-116.691
X165.899Y-57.34
X165.899Y-76.391
X165.899Y-95.441
X165.899Y-114.49
X179.95Y-54.778
X179.95Y-73.828
X179.95Y-92.922
X179.95Y-111.972
X184.95Y-52.578
X184.95Y-71.628
X184.95Y-90.722
X184.95Y-109.772
X198.999Y-50.015
X198.999Y-69.066
X198.999Y-88.115
X198.999Y-107.165
X203.999Y-47.816
X203.999Y-66.865
X203.999Y-85.915
X203.999Y-104.965
X218.049Y-54.778
X218.049Y-73.828
X218.049Y-92.878
X218.049Y-111.928
X223.049Y-52.578
X223.049Y-71.628
X223.049Y-90.678
X223.049Y-109.728
X229.555Y-135.301
X234.861Y-134.003
X237.099Y-56.683
X237.099Y-75.733
X237.099Y-94.783
X237.099Y-113.833
X242.099Y-54.483
X242.099Y-73.533
X242.099Y-92.583
X242.099Y-111.633
X248.914Y-144.568
X254.159Y-146.097
M30
