%TF.GenerationSoftware,KiCad,Pcbnew,9.0.7*%
%TF.CreationDate,2026-03-29T21:17:25+05:30*%
%TF.ProjectId,epsilon,65707369-6c6f-46e2-9e6b-696361645f70,rev?*%
%TF.SameCoordinates,Original*%
%TF.FileFunction,Legend,Bot*%
%TF.FilePolarity,Positive*%
%FSLAX46Y46*%
G04 Gerber Fmt 4.6, Leading zero omitted, Abs format (unit mm)*
G04 Created by KiCad (PCBNEW 9.0.7) date 2026-03-29 21:17:25*
%MOMM*%
%LPD*%
G01*
G04 APERTURE LIST*
%ADD10C,0.000000*%
%ADD11C,0.150000*%
G04 APERTURE END LIST*
D10*
G36*
X245332048Y-116353319D02*
G01*
X245645221Y-116366406D01*
X245951883Y-116388217D01*
X246252035Y-116418753D01*
X246545675Y-116458013D01*
X246832806Y-116505998D01*
X247113425Y-116562708D01*
X247387533Y-116628142D01*
X247655131Y-116702301D01*
X247916219Y-116785184D01*
X248170795Y-116876792D01*
X248418861Y-116977124D01*
X248660416Y-117086181D01*
X248895460Y-117203963D01*
X249123994Y-117330469D01*
X249346017Y-117465699D01*
X249555932Y-117608222D01*
X249752305Y-117756605D01*
X249935135Y-117910848D01*
X250104422Y-118070950D01*
X250260165Y-118236913D01*
X250402366Y-118408735D01*
X250531024Y-118586418D01*
X250646140Y-118769960D01*
X250747712Y-118959362D01*
X250835741Y-119154625D01*
X250910227Y-119355747D01*
X250971170Y-119562729D01*
X251018571Y-119775571D01*
X251052428Y-119994273D01*
X251072743Y-120218835D01*
X251079514Y-120449257D01*
X251066688Y-120740420D01*
X251050655Y-120882485D01*
X251028208Y-121022207D01*
X250999349Y-121159585D01*
X250964076Y-121294619D01*
X250922390Y-121427309D01*
X250874291Y-121557656D01*
X250819779Y-121685658D01*
X250758853Y-121811317D01*
X250691514Y-121934632D01*
X250617762Y-122055603D01*
X250537597Y-122174230D01*
X250451019Y-122290514D01*
X250258622Y-122516049D01*
X250040572Y-122732209D01*
X249796870Y-122938994D01*
X249527515Y-123136403D01*
X249232507Y-123324438D01*
X248911846Y-123503096D01*
X248565532Y-123672380D01*
X248193565Y-123832288D01*
X247795946Y-123982820D01*
X247796209Y-123982957D01*
X248290714Y-124144694D01*
X248753316Y-124317370D01*
X249184015Y-124500982D01*
X249582810Y-124695533D01*
X249770243Y-124796910D01*
X249949701Y-124901021D01*
X250121183Y-125007867D01*
X250284689Y-125117447D01*
X250440219Y-125229762D01*
X250587773Y-125344811D01*
X250727351Y-125462594D01*
X250858953Y-125583112D01*
X250982579Y-125706365D01*
X251098230Y-125832351D01*
X251205905Y-125961073D01*
X251305603Y-126092528D01*
X251397326Y-126226718D01*
X251481073Y-126363642D01*
X251556844Y-126503301D01*
X251624639Y-126645695D01*
X251684458Y-126790822D01*
X251736302Y-126938684D01*
X251780169Y-127089281D01*
X251816060Y-127242612D01*
X251843976Y-127398677D01*
X251863916Y-127557477D01*
X251875880Y-127719011D01*
X251879868Y-127883280D01*
X251871859Y-128144561D01*
X251861849Y-128272711D01*
X251847834Y-128399201D01*
X251829815Y-128524031D01*
X251807792Y-128647201D01*
X251781765Y-128768710D01*
X251751733Y-128888559D01*
X251717698Y-129006748D01*
X251679658Y-129123277D01*
X251637614Y-129238146D01*
X251591565Y-129351354D01*
X251541513Y-129462902D01*
X251487456Y-129572790D01*
X251429395Y-129681018D01*
X251367330Y-129787586D01*
X251301261Y-129892493D01*
X251231188Y-129995741D01*
X251157110Y-130097328D01*
X251079028Y-130197255D01*
X250996942Y-130295521D01*
X250910852Y-130392128D01*
X250726658Y-130580360D01*
X250526448Y-130761952D01*
X250310222Y-130936903D01*
X250077978Y-131105214D01*
X249829717Y-131266883D01*
X249569089Y-131420284D01*
X249303904Y-131563787D01*
X249034160Y-131697394D01*
X248759860Y-131821104D01*
X248481001Y-131934918D01*
X248197585Y-132038834D01*
X247909611Y-132132854D01*
X247617080Y-132216977D01*
X247319990Y-132291203D01*
X247018344Y-132355533D01*
X246712139Y-132409965D01*
X246401377Y-132454501D01*
X246086057Y-132489140D01*
X245766180Y-132513882D01*
X245441745Y-132528727D01*
X245112752Y-132533676D01*
X244813438Y-132529834D01*
X244519724Y-132518310D01*
X244231610Y-132499102D01*
X243949096Y-132472212D01*
X243672181Y-132437638D01*
X243400867Y-132395382D01*
X243135152Y-132345442D01*
X242875038Y-132287820D01*
X242620523Y-132222514D01*
X242371608Y-132149525D01*
X242128293Y-132068854D01*
X241890578Y-131980499D01*
X241658463Y-131884462D01*
X241431948Y-131780741D01*
X241211033Y-131669338D01*
X240995717Y-131550251D01*
X240789844Y-131423224D01*
X240597252Y-131292160D01*
X240417942Y-131157059D01*
X240251915Y-131017922D01*
X240099170Y-130874747D01*
X239959707Y-130727536D01*
X239833526Y-130576288D01*
X239720627Y-130421003D01*
X239621010Y-130261681D01*
X239534676Y-130098323D01*
X239461623Y-129930927D01*
X239401853Y-129759495D01*
X239355365Y-129584026D01*
X239322160Y-129404520D01*
X239302236Y-129220977D01*
X239295595Y-129033397D01*
X239297419Y-128955131D01*
X239302891Y-128878688D01*
X239312011Y-128804069D01*
X239324778Y-128731273D01*
X239341194Y-128660301D01*
X239361257Y-128591152D01*
X239384968Y-128523827D01*
X239412327Y-128458325D01*
X239443334Y-128394646D01*
X239477989Y-128332791D01*
X239516292Y-128272760D01*
X239558243Y-128214552D01*
X239603841Y-128158167D01*
X239653088Y-128103606D01*
X239705982Y-128050869D01*
X239762525Y-127999955D01*
X239819231Y-127949497D01*
X239876849Y-127902294D01*
X239935379Y-127858347D01*
X239994821Y-127817655D01*
X240055174Y-127780218D01*
X240116439Y-127746036D01*
X240178616Y-127715110D01*
X240241704Y-127687440D01*
X240305704Y-127663024D01*
X240370616Y-127641864D01*
X240436440Y-127623960D01*
X240503175Y-127609311D01*
X240570822Y-127597917D01*
X240639380Y-127589778D01*
X240708851Y-127584895D01*
X240779233Y-127583267D01*
X240863611Y-127584895D01*
X240945907Y-127589778D01*
X241026119Y-127597917D01*
X241104249Y-127609311D01*
X241180295Y-127623960D01*
X241254259Y-127641864D01*
X241326140Y-127663024D01*
X241395938Y-127687440D01*
X241463652Y-127715110D01*
X241529284Y-127746036D01*
X241592833Y-127780218D01*
X241654299Y-127817655D01*
X241713682Y-127858347D01*
X241770983Y-127902294D01*
X241826200Y-127949497D01*
X241879334Y-127999955D01*
X241929081Y-128054645D01*
X241978306Y-128114545D01*
X242027010Y-128179653D01*
X242075192Y-128249971D01*
X242122853Y-128325498D01*
X242169992Y-128406234D01*
X242216609Y-128492179D01*
X242262705Y-128583334D01*
X242308279Y-128679697D01*
X242353331Y-128781270D01*
X242441871Y-129000043D01*
X242528325Y-129239652D01*
X242612693Y-129500098D01*
X242699156Y-129748359D01*
X242796037Y-129980602D01*
X242903336Y-130196829D01*
X243021053Y-130397040D01*
X243083818Y-130491138D01*
X243149187Y-130581233D01*
X243217160Y-130667323D01*
X243287739Y-130749410D01*
X243360921Y-130827492D01*
X243436708Y-130901569D01*
X243515099Y-130971643D01*
X243596095Y-131037712D01*
X243679695Y-131099778D01*
X243765899Y-131157839D01*
X243854708Y-131211895D01*
X243946121Y-131261948D01*
X244040139Y-131307996D01*
X244136761Y-131350041D01*
X244235987Y-131388081D01*
X244337818Y-131422116D01*
X244442253Y-131452148D01*
X244549292Y-131478175D01*
X244658936Y-131500198D01*
X244771185Y-131518217D01*
X245003494Y-131542243D01*
X245246222Y-131550251D01*
X245441415Y-131546345D01*
X245631139Y-131534625D01*
X245815395Y-131515093D01*
X245994181Y-131487747D01*
X246167499Y-131452589D01*
X246335349Y-131409617D01*
X246497729Y-131358832D01*
X246654641Y-131300235D01*
X246806084Y-131233824D01*
X246952058Y-131159600D01*
X247092564Y-131077564D01*
X247227600Y-130987714D01*
X247357168Y-130890051D01*
X247481268Y-130784575D01*
X247599898Y-130671286D01*
X247713060Y-130550183D01*
X247820036Y-130420609D01*
X247920110Y-130286088D01*
X248013283Y-130146618D01*
X248099554Y-130002201D01*
X248178924Y-129852836D01*
X248251392Y-129698524D01*
X248316958Y-129539263D01*
X248375622Y-129375056D01*
X248427385Y-129205900D01*
X248472246Y-129031797D01*
X248510205Y-128852746D01*
X248541263Y-128668748D01*
X248565419Y-128479801D01*
X248582673Y-128285908D01*
X248593026Y-128087066D01*
X248596477Y-127883277D01*
X248593221Y-127674082D01*
X248583455Y-127471529D01*
X248567178Y-127275616D01*
X248544390Y-127086345D01*
X248515090Y-126903715D01*
X248479280Y-126727725D01*
X248436960Y-126558377D01*
X248388128Y-126395670D01*
X248332785Y-126239604D01*
X248270931Y-126090180D01*
X248202567Y-125947396D01*
X248127692Y-125811253D01*
X248046305Y-125681752D01*
X247958408Y-125558891D01*
X247864000Y-125442672D01*
X247763081Y-125333094D01*
X247655651Y-125230157D01*
X247541710Y-125133860D01*
X247421258Y-125044206D01*
X247294295Y-124961192D01*
X247160822Y-124884819D01*
X247020837Y-124815087D01*
X246874342Y-124751997D01*
X246721336Y-124695547D01*
X246561818Y-124645739D01*
X246395790Y-124602572D01*
X246223251Y-124566046D01*
X246044201Y-124536161D01*
X245858640Y-124512917D01*
X245666568Y-124496314D01*
X245467986Y-124486353D01*
X245262892Y-124483032D01*
X245183980Y-124484593D01*
X245097254Y-124489278D01*
X245002714Y-124497084D01*
X244900360Y-124508014D01*
X244790192Y-124522066D01*
X244672210Y-124539241D01*
X244546414Y-124559538D01*
X244412804Y-124582958D01*
X244235155Y-124610308D01*
X244068974Y-124634011D01*
X243914260Y-124654068D01*
X243771013Y-124670478D01*
X243639234Y-124683241D01*
X243518923Y-124692358D01*
X243410079Y-124697828D01*
X243312703Y-124699651D01*
X243249122Y-124699016D01*
X243187559Y-124697112D01*
X243128015Y-124693938D01*
X243070490Y-124689494D01*
X243014983Y-124683781D01*
X242961494Y-124676798D01*
X242910024Y-124668545D01*
X242860572Y-124659023D01*
X242813139Y-124648231D01*
X242767724Y-124636170D01*
X242724327Y-124622839D01*
X242682949Y-124608238D01*
X242643589Y-124592368D01*
X242606248Y-124575228D01*
X242570926Y-124556818D01*
X242537621Y-124537139D01*
X242506335Y-124516190D01*
X242477068Y-124493972D01*
X242449819Y-124470484D01*
X242424588Y-124445726D01*
X242401376Y-124419699D01*
X242380183Y-124392402D01*
X242361008Y-124363835D01*
X242343851Y-124333999D01*
X242328712Y-124302893D01*
X242315593Y-124270518D01*
X242304491Y-124236873D01*
X242295408Y-124201958D01*
X242288344Y-124165774D01*
X242283297Y-124128320D01*
X242280270Y-124089596D01*
X242279261Y-124049603D01*
X242280253Y-124013712D01*
X242283232Y-123978960D01*
X242288197Y-123945348D01*
X242295147Y-123912875D01*
X242304083Y-123881542D01*
X242315004Y-123851348D01*
X242327912Y-123822294D01*
X242342805Y-123794378D01*
X242359684Y-123767603D01*
X242378549Y-123741966D01*
X242399399Y-123717469D01*
X242422236Y-123694112D01*
X242447058Y-123671893D01*
X242473865Y-123650815D01*
X242502659Y-123630875D01*
X242533438Y-123612075D01*
X242600954Y-123577894D01*
X242676413Y-123548269D01*
X242759815Y-123523203D01*
X242851160Y-123502694D01*
X242950448Y-123486742D01*
X243057679Y-123475348D01*
X243172853Y-123468512D01*
X243295970Y-123466233D01*
X243405343Y-123467794D01*
X243525137Y-123472478D01*
X243655351Y-123480285D01*
X243795986Y-123491214D01*
X243947041Y-123505266D01*
X244108516Y-123522441D01*
X244280413Y-123542738D01*
X244462729Y-123566158D01*
X244569522Y-123581782D01*
X244673185Y-123595322D01*
X244773720Y-123606780D01*
X244871125Y-123616154D01*
X244965401Y-123623445D01*
X245056548Y-123628653D01*
X245144566Y-123631778D01*
X245229454Y-123632819D01*
X245423268Y-123629841D01*
X245610930Y-123620904D01*
X245792438Y-123606011D01*
X245967794Y-123585160D01*
X246136997Y-123558351D01*
X246300047Y-123525585D01*
X246456944Y-123486862D01*
X246607689Y-123442181D01*
X246752280Y-123391542D01*
X246890719Y-123334947D01*
X247023005Y-123272393D01*
X247149138Y-123203882D01*
X247269118Y-123129414D01*
X247382945Y-123048989D01*
X247490620Y-122962606D01*
X247592142Y-122870265D01*
X247687511Y-122771967D01*
X247776727Y-122667712D01*
X247859790Y-122557499D01*
X247936700Y-122441328D01*
X248007458Y-122319200D01*
X248072063Y-122191115D01*
X248130515Y-122057072D01*
X248182814Y-121917072D01*
X248228960Y-121771115D01*
X248268953Y-121619200D01*
X248302794Y-121461327D01*
X248330482Y-121297497D01*
X248352017Y-121127710D01*
X248367399Y-120951965D01*
X248376628Y-120770262D01*
X248379704Y-120582603D01*
X248376384Y-120391510D01*
X248366422Y-120205756D01*
X248349819Y-120025341D01*
X248326574Y-119850264D01*
X248296688Y-119680527D01*
X248260161Y-119516128D01*
X248216992Y-119357069D01*
X248167182Y-119203348D01*
X248110731Y-119054966D01*
X248047639Y-118911923D01*
X247977905Y-118774219D01*
X247901530Y-118641854D01*
X247818513Y-118514828D01*
X247728856Y-118393140D01*
X247632557Y-118276792D01*
X247529616Y-118165782D01*
X247421530Y-118060827D01*
X247309799Y-117962642D01*
X247194422Y-117871229D01*
X247075399Y-117786588D01*
X246952731Y-117708718D01*
X246826418Y-117637619D01*
X246696460Y-117573291D01*
X246562856Y-117515735D01*
X246425606Y-117464950D01*
X246284712Y-117420936D01*
X246140171Y-117383694D01*
X245991986Y-117353223D01*
X245840155Y-117329523D01*
X245684678Y-117312595D01*
X245525557Y-117302438D01*
X245362789Y-117299052D01*
X245157693Y-117306084D01*
X245057586Y-117314874D01*
X244959107Y-117327180D01*
X244862256Y-117343001D01*
X244767032Y-117362339D01*
X244673437Y-117385192D01*
X244581469Y-117411562D01*
X244491129Y-117441447D01*
X244402417Y-117474849D01*
X244315332Y-117511766D01*
X244229875Y-117552199D01*
X244146047Y-117596148D01*
X244063845Y-117643613D01*
X243983272Y-117694594D01*
X243904327Y-117749091D01*
X243827009Y-117807104D01*
X243751319Y-117868633D01*
X243677257Y-117933678D01*
X243604822Y-118002238D01*
X243464837Y-118149907D01*
X243331363Y-118311640D01*
X243204399Y-118487437D01*
X243083948Y-118677297D01*
X242970007Y-118881221D01*
X242862577Y-119099209D01*
X242786261Y-119256640D01*
X242707342Y-119403914D01*
X242625818Y-119541032D01*
X242541691Y-119667992D01*
X242454959Y-119784796D01*
X242365624Y-119891443D01*
X242273685Y-119987933D01*
X242226739Y-120032369D01*
X242179142Y-120074266D01*
X242130894Y-120113624D01*
X242081995Y-120150443D01*
X242032445Y-120184722D01*
X241982244Y-120216463D01*
X241931393Y-120245664D01*
X241879890Y-120272325D01*
X241827736Y-120296448D01*
X241774931Y-120318031D01*
X241721476Y-120337075D01*
X241667369Y-120353580D01*
X241612611Y-120367546D01*
X241557203Y-120378973D01*
X241501143Y-120387860D01*
X241444433Y-120394208D01*
X241387071Y-120398017D01*
X241329058Y-120399286D01*
X241258715Y-120397659D01*
X241189417Y-120392776D01*
X241121165Y-120384637D01*
X241053957Y-120373243D01*
X240987795Y-120358594D01*
X240922678Y-120340689D01*
X240858605Y-120319529D01*
X240795579Y-120295114D01*
X240733597Y-120267443D01*
X240672660Y-120236517D01*
X240612769Y-120202336D01*
X240553923Y-120164899D01*
X240496122Y-120124207D01*
X240439366Y-120080260D01*
X240383656Y-120033057D01*
X240328991Y-119982599D01*
X240276480Y-119927908D01*
X240227357Y-119872176D01*
X240181622Y-119815402D01*
X240139275Y-119757586D01*
X240100316Y-119698728D01*
X240064744Y-119638828D01*
X240032560Y-119577887D01*
X240003764Y-119515903D01*
X239978356Y-119452878D01*
X239956335Y-119388811D01*
X239937703Y-119323703D01*
X239922458Y-119257552D01*
X239910600Y-119190359D01*
X239902131Y-119122125D01*
X239897049Y-119052849D01*
X239895355Y-118982531D01*
X239900760Y-118848337D01*
X239916972Y-118716618D01*
X239929131Y-118651686D01*
X239943993Y-118587373D01*
X239981822Y-118460602D01*
X240030460Y-118336306D01*
X240089906Y-118214484D01*
X240160160Y-118095136D01*
X240241223Y-117978263D01*
X240333094Y-117863865D01*
X240435774Y-117751941D01*
X240549262Y-117642491D01*
X240673558Y-117535515D01*
X240808662Y-117431015D01*
X240954575Y-117328988D01*
X241111296Y-117229436D01*
X241278826Y-117132358D01*
X241455524Y-117037493D01*
X241639776Y-116948748D01*
X241831581Y-116866124D01*
X242030938Y-116789620D01*
X242237849Y-116719236D01*
X242452313Y-116654973D01*
X242674329Y-116596830D01*
X242903899Y-116544807D01*
X243141021Y-116498904D01*
X243385697Y-116459122D01*
X243637926Y-116425461D01*
X243897707Y-116397919D01*
X244165042Y-116376498D01*
X244439930Y-116361197D01*
X244722370Y-116352017D01*
X245012364Y-116348956D01*
X245332048Y-116353319D01*
G37*
G36*
X50592156Y-116347971D02*
G01*
X50905329Y-116361058D01*
X51211991Y-116382869D01*
X51512143Y-116413405D01*
X51805783Y-116452665D01*
X52092914Y-116500650D01*
X52373533Y-116557360D01*
X52647641Y-116622794D01*
X52915239Y-116696953D01*
X53176327Y-116779836D01*
X53430903Y-116871444D01*
X53678969Y-116971776D01*
X53920524Y-117080833D01*
X54155568Y-117198615D01*
X54384102Y-117325121D01*
X54606125Y-117460351D01*
X54816040Y-117602874D01*
X55012413Y-117751257D01*
X55195243Y-117905500D01*
X55364530Y-118065602D01*
X55520273Y-118231565D01*
X55662474Y-118403387D01*
X55791132Y-118581070D01*
X55906248Y-118764612D01*
X56007820Y-118954014D01*
X56095849Y-119149277D01*
X56170335Y-119350399D01*
X56231278Y-119557381D01*
X56278679Y-119770223D01*
X56312536Y-119988925D01*
X56332851Y-120213487D01*
X56339622Y-120443909D01*
X56326796Y-120735072D01*
X56310763Y-120877137D01*
X56288316Y-121016859D01*
X56259457Y-121154237D01*
X56224184Y-121289271D01*
X56182498Y-121421961D01*
X56134399Y-121552308D01*
X56079887Y-121680310D01*
X56018961Y-121805969D01*
X55951622Y-121929284D01*
X55877870Y-122050255D01*
X55797705Y-122168882D01*
X55711127Y-122285166D01*
X55518730Y-122510701D01*
X55300680Y-122726861D01*
X55056978Y-122933646D01*
X54787623Y-123131055D01*
X54492615Y-123319090D01*
X54171954Y-123497748D01*
X53825640Y-123667032D01*
X53453673Y-123826940D01*
X53056054Y-123977472D01*
X53056317Y-123977609D01*
X53550822Y-124139346D01*
X54013424Y-124312022D01*
X54444123Y-124495634D01*
X54842918Y-124690185D01*
X55030351Y-124791562D01*
X55209809Y-124895673D01*
X55381291Y-125002519D01*
X55544797Y-125112099D01*
X55700327Y-125224414D01*
X55847881Y-125339463D01*
X55987459Y-125457246D01*
X56119061Y-125577764D01*
X56242687Y-125701017D01*
X56358338Y-125827003D01*
X56466013Y-125955725D01*
X56565711Y-126087180D01*
X56657434Y-126221370D01*
X56741181Y-126358294D01*
X56816952Y-126497953D01*
X56884747Y-126640347D01*
X56944566Y-126785474D01*
X56996410Y-126933336D01*
X57040277Y-127083933D01*
X57076168Y-127237264D01*
X57104084Y-127393329D01*
X57124024Y-127552129D01*
X57135988Y-127713663D01*
X57139976Y-127877932D01*
X57131967Y-128139213D01*
X57121957Y-128267363D01*
X57107942Y-128393853D01*
X57089923Y-128518683D01*
X57067900Y-128641853D01*
X57041873Y-128763362D01*
X57011841Y-128883211D01*
X56977806Y-129001400D01*
X56939766Y-129117929D01*
X56897722Y-129232798D01*
X56851673Y-129346006D01*
X56801621Y-129457554D01*
X56747564Y-129567442D01*
X56689503Y-129675670D01*
X56627438Y-129782238D01*
X56561369Y-129887145D01*
X56491296Y-129990393D01*
X56417218Y-130091980D01*
X56339136Y-130191907D01*
X56257050Y-130290173D01*
X56170960Y-130386780D01*
X55986766Y-130575012D01*
X55786556Y-130756604D01*
X55570330Y-130931555D01*
X55338086Y-131099866D01*
X55089825Y-131261535D01*
X54829197Y-131414936D01*
X54564012Y-131558439D01*
X54294268Y-131692046D01*
X54019968Y-131815756D01*
X53741109Y-131929570D01*
X53457693Y-132033486D01*
X53169719Y-132127506D01*
X52877188Y-132211629D01*
X52580098Y-132285855D01*
X52278452Y-132350185D01*
X51972247Y-132404617D01*
X51661485Y-132449153D01*
X51346165Y-132483792D01*
X51026288Y-132508534D01*
X50701853Y-132523379D01*
X50372860Y-132528328D01*
X50073546Y-132524486D01*
X49779832Y-132512962D01*
X49491718Y-132493754D01*
X49209204Y-132466864D01*
X48932289Y-132432290D01*
X48660975Y-132390034D01*
X48395260Y-132340094D01*
X48135146Y-132282472D01*
X47880631Y-132217166D01*
X47631716Y-132144177D01*
X47388401Y-132063506D01*
X47150686Y-131975151D01*
X46918571Y-131879114D01*
X46692056Y-131775393D01*
X46471141Y-131663990D01*
X46255825Y-131544903D01*
X46049952Y-131417876D01*
X45857360Y-131286812D01*
X45678050Y-131151711D01*
X45512023Y-131012574D01*
X45359278Y-130869399D01*
X45219815Y-130722188D01*
X45093634Y-130570940D01*
X44980735Y-130415655D01*
X44881118Y-130256333D01*
X44794784Y-130092975D01*
X44721731Y-129925579D01*
X44661961Y-129754147D01*
X44615473Y-129578678D01*
X44582268Y-129399172D01*
X44562344Y-129215629D01*
X44555703Y-129028049D01*
X44557527Y-128949783D01*
X44562999Y-128873340D01*
X44572119Y-128798721D01*
X44584886Y-128725925D01*
X44601302Y-128654953D01*
X44621365Y-128585804D01*
X44645076Y-128518479D01*
X44672435Y-128452977D01*
X44703442Y-128389298D01*
X44738097Y-128327443D01*
X44776400Y-128267412D01*
X44818351Y-128209204D01*
X44863949Y-128152819D01*
X44913196Y-128098258D01*
X44966090Y-128045521D01*
X45022633Y-127994607D01*
X45079339Y-127944149D01*
X45136957Y-127896946D01*
X45195487Y-127852999D01*
X45254929Y-127812307D01*
X45315282Y-127774870D01*
X45376547Y-127740688D01*
X45438724Y-127709762D01*
X45501812Y-127682092D01*
X45565812Y-127657676D01*
X45630724Y-127636516D01*
X45696548Y-127618612D01*
X45763283Y-127603963D01*
X45830930Y-127592569D01*
X45899488Y-127584430D01*
X45968959Y-127579547D01*
X46039341Y-127577919D01*
X46123719Y-127579547D01*
X46206015Y-127584430D01*
X46286227Y-127592569D01*
X46364357Y-127603963D01*
X46440403Y-127618612D01*
X46514367Y-127636516D01*
X46586248Y-127657676D01*
X46656046Y-127682092D01*
X46723760Y-127709762D01*
X46789392Y-127740688D01*
X46852941Y-127774870D01*
X46914407Y-127812307D01*
X46973790Y-127852999D01*
X47031091Y-127896946D01*
X47086308Y-127944149D01*
X47139442Y-127994607D01*
X47189189Y-128049297D01*
X47238414Y-128109197D01*
X47287118Y-128174305D01*
X47335300Y-128244623D01*
X47382961Y-128320150D01*
X47430100Y-128400886D01*
X47476717Y-128486831D01*
X47522813Y-128577986D01*
X47568387Y-128674349D01*
X47613439Y-128775922D01*
X47701979Y-128994695D01*
X47788433Y-129234304D01*
X47872801Y-129494750D01*
X47959264Y-129743011D01*
X48056145Y-129975254D01*
X48163444Y-130191481D01*
X48281161Y-130391692D01*
X48343926Y-130485790D01*
X48409295Y-130575885D01*
X48477268Y-130661975D01*
X48547847Y-130744062D01*
X48621029Y-130822144D01*
X48696816Y-130896221D01*
X48775207Y-130966295D01*
X48856203Y-131032364D01*
X48939803Y-131094430D01*
X49026007Y-131152491D01*
X49114816Y-131206547D01*
X49206229Y-131256600D01*
X49300247Y-131302648D01*
X49396869Y-131344693D01*
X49496095Y-131382733D01*
X49597926Y-131416768D01*
X49702361Y-131446800D01*
X49809400Y-131472827D01*
X49919044Y-131494850D01*
X50031293Y-131512869D01*
X50263602Y-131536895D01*
X50506330Y-131544903D01*
X50701523Y-131540997D01*
X50891247Y-131529277D01*
X51075503Y-131509745D01*
X51254289Y-131482399D01*
X51427607Y-131447241D01*
X51595457Y-131404269D01*
X51757837Y-131353484D01*
X51914749Y-131294887D01*
X52066192Y-131228476D01*
X52212166Y-131154252D01*
X52352672Y-131072216D01*
X52487708Y-130982366D01*
X52617276Y-130884703D01*
X52741376Y-130779227D01*
X52860006Y-130665938D01*
X52973168Y-130544835D01*
X53080144Y-130415261D01*
X53180218Y-130280740D01*
X53273391Y-130141270D01*
X53359662Y-129996853D01*
X53439032Y-129847488D01*
X53511500Y-129693176D01*
X53577066Y-129533915D01*
X53635730Y-129369708D01*
X53687493Y-129200552D01*
X53732354Y-129026449D01*
X53770313Y-128847398D01*
X53801371Y-128663400D01*
X53825527Y-128474453D01*
X53842781Y-128280560D01*
X53853134Y-128081718D01*
X53856585Y-127877929D01*
X53853329Y-127668734D01*
X53843563Y-127466181D01*
X53827286Y-127270268D01*
X53804498Y-127080997D01*
X53775198Y-126898367D01*
X53739388Y-126722377D01*
X53697068Y-126553029D01*
X53648236Y-126390322D01*
X53592893Y-126234256D01*
X53531039Y-126084832D01*
X53462675Y-125942048D01*
X53387800Y-125805905D01*
X53306413Y-125676404D01*
X53218516Y-125553543D01*
X53124108Y-125437324D01*
X53023189Y-125327746D01*
X52915759Y-125224809D01*
X52801818Y-125128512D01*
X52681366Y-125038858D01*
X52554403Y-124955844D01*
X52420930Y-124879471D01*
X52280945Y-124809739D01*
X52134450Y-124746649D01*
X51981444Y-124690199D01*
X51821926Y-124640391D01*
X51655898Y-124597224D01*
X51483359Y-124560698D01*
X51304309Y-124530813D01*
X51118748Y-124507569D01*
X50926676Y-124490966D01*
X50728094Y-124481005D01*
X50523000Y-124477684D01*
X50444088Y-124479245D01*
X50357362Y-124483930D01*
X50262822Y-124491736D01*
X50160468Y-124502666D01*
X50050300Y-124516718D01*
X49932318Y-124533893D01*
X49806522Y-124554190D01*
X49672912Y-124577610D01*
X49495263Y-124604960D01*
X49329082Y-124628663D01*
X49174368Y-124648720D01*
X49031121Y-124665130D01*
X48899342Y-124677893D01*
X48779031Y-124687010D01*
X48670187Y-124692480D01*
X48572811Y-124694303D01*
X48509230Y-124693668D01*
X48447667Y-124691764D01*
X48388123Y-124688590D01*
X48330598Y-124684146D01*
X48275091Y-124678433D01*
X48221602Y-124671450D01*
X48170132Y-124663197D01*
X48120680Y-124653675D01*
X48073247Y-124642883D01*
X48027832Y-124630822D01*
X47984435Y-124617491D01*
X47943057Y-124602890D01*
X47903697Y-124587020D01*
X47866356Y-124569880D01*
X47831034Y-124551470D01*
X47797729Y-124531791D01*
X47766443Y-124510842D01*
X47737176Y-124488624D01*
X47709927Y-124465136D01*
X47684696Y-124440378D01*
X47661484Y-124414351D01*
X47640291Y-124387054D01*
X47621116Y-124358487D01*
X47603959Y-124328651D01*
X47588820Y-124297545D01*
X47575701Y-124265170D01*
X47564599Y-124231525D01*
X47555516Y-124196610D01*
X47548452Y-124160426D01*
X47543405Y-124122972D01*
X47540378Y-124084248D01*
X47539369Y-124044255D01*
X47540361Y-124008364D01*
X47543340Y-123973612D01*
X47548305Y-123940000D01*
X47555255Y-123907527D01*
X47564191Y-123876194D01*
X47575112Y-123846000D01*
X47588020Y-123816946D01*
X47602913Y-123789030D01*
X47619792Y-123762255D01*
X47638657Y-123736618D01*
X47659507Y-123712121D01*
X47682344Y-123688764D01*
X47707166Y-123666545D01*
X47733973Y-123645467D01*
X47762767Y-123625527D01*
X47793546Y-123606727D01*
X47861062Y-123572546D01*
X47936521Y-123542921D01*
X48019923Y-123517855D01*
X48111268Y-123497346D01*
X48210556Y-123481394D01*
X48317787Y-123470000D01*
X48432961Y-123463164D01*
X48556078Y-123460885D01*
X48665451Y-123462446D01*
X48785245Y-123467130D01*
X48915459Y-123474937D01*
X49056094Y-123485866D01*
X49207149Y-123499918D01*
X49368624Y-123517093D01*
X49540521Y-123537390D01*
X49722837Y-123560810D01*
X49829630Y-123576434D01*
X49933293Y-123589974D01*
X50033828Y-123601432D01*
X50131233Y-123610806D01*
X50225509Y-123618097D01*
X50316656Y-123623305D01*
X50404674Y-123626430D01*
X50489562Y-123627471D01*
X50683376Y-123624493D01*
X50871038Y-123615556D01*
X51052546Y-123600663D01*
X51227902Y-123579812D01*
X51397105Y-123553003D01*
X51560155Y-123520237D01*
X51717052Y-123481514D01*
X51867797Y-123436833D01*
X52012388Y-123386194D01*
X52150827Y-123329599D01*
X52283113Y-123267045D01*
X52409246Y-123198534D01*
X52529226Y-123124066D01*
X52643053Y-123043641D01*
X52750728Y-122957258D01*
X52852250Y-122864917D01*
X52947619Y-122766619D01*
X53036835Y-122662364D01*
X53119898Y-122552151D01*
X53196808Y-122435980D01*
X53267566Y-122313852D01*
X53332171Y-122185767D01*
X53390623Y-122051724D01*
X53442922Y-121911724D01*
X53489068Y-121765767D01*
X53529061Y-121613852D01*
X53562902Y-121455979D01*
X53590590Y-121292149D01*
X53612125Y-121122362D01*
X53627507Y-120946617D01*
X53636736Y-120764914D01*
X53639812Y-120577255D01*
X53636492Y-120386162D01*
X53626530Y-120200408D01*
X53609927Y-120019993D01*
X53586682Y-119844916D01*
X53556796Y-119675179D01*
X53520269Y-119510780D01*
X53477100Y-119351721D01*
X53427290Y-119198000D01*
X53370839Y-119049618D01*
X53307747Y-118906575D01*
X53238013Y-118768871D01*
X53161638Y-118636506D01*
X53078621Y-118509480D01*
X52988964Y-118387792D01*
X52892665Y-118271444D01*
X52789724Y-118160434D01*
X52681638Y-118055479D01*
X52569907Y-117957294D01*
X52454530Y-117865881D01*
X52335507Y-117781240D01*
X52212839Y-117703370D01*
X52086526Y-117632271D01*
X51956568Y-117567943D01*
X51822964Y-117510387D01*
X51685714Y-117459602D01*
X51544820Y-117415588D01*
X51400279Y-117378346D01*
X51252094Y-117347875D01*
X51100263Y-117324175D01*
X50944786Y-117307247D01*
X50785665Y-117297090D01*
X50622897Y-117293704D01*
X50417801Y-117300736D01*
X50317694Y-117309526D01*
X50219215Y-117321832D01*
X50122364Y-117337653D01*
X50027140Y-117356991D01*
X49933545Y-117379844D01*
X49841577Y-117406214D01*
X49751237Y-117436099D01*
X49662525Y-117469501D01*
X49575440Y-117506418D01*
X49489983Y-117546851D01*
X49406155Y-117590800D01*
X49323953Y-117638265D01*
X49243380Y-117689246D01*
X49164435Y-117743743D01*
X49087117Y-117801756D01*
X49011427Y-117863285D01*
X48937365Y-117928330D01*
X48864930Y-117996890D01*
X48724945Y-118144559D01*
X48591471Y-118306292D01*
X48464507Y-118482089D01*
X48344056Y-118671949D01*
X48230115Y-118875873D01*
X48122685Y-119093861D01*
X48046369Y-119251292D01*
X47967450Y-119398566D01*
X47885926Y-119535684D01*
X47801799Y-119662644D01*
X47715067Y-119779448D01*
X47625732Y-119886095D01*
X47533793Y-119982585D01*
X47486847Y-120027021D01*
X47439250Y-120068918D01*
X47391002Y-120108276D01*
X47342103Y-120145095D01*
X47292553Y-120179374D01*
X47242352Y-120211115D01*
X47191501Y-120240316D01*
X47139998Y-120266977D01*
X47087844Y-120291100D01*
X47035039Y-120312683D01*
X46981584Y-120331727D01*
X46927477Y-120348232D01*
X46872719Y-120362198D01*
X46817311Y-120373625D01*
X46761251Y-120382512D01*
X46704541Y-120388860D01*
X46647179Y-120392669D01*
X46589166Y-120393938D01*
X46518823Y-120392311D01*
X46449525Y-120387428D01*
X46381273Y-120379289D01*
X46314065Y-120367895D01*
X46247903Y-120353246D01*
X46182786Y-120335341D01*
X46118713Y-120314181D01*
X46055687Y-120289766D01*
X45993705Y-120262095D01*
X45932768Y-120231169D01*
X45872877Y-120196988D01*
X45814031Y-120159551D01*
X45756230Y-120118859D01*
X45699474Y-120074912D01*
X45643764Y-120027709D01*
X45589099Y-119977251D01*
X45536588Y-119922560D01*
X45487465Y-119866828D01*
X45441730Y-119810054D01*
X45399383Y-119752238D01*
X45360424Y-119693380D01*
X45324852Y-119633480D01*
X45292668Y-119572539D01*
X45263872Y-119510555D01*
X45238464Y-119447530D01*
X45216443Y-119383463D01*
X45197811Y-119318355D01*
X45182566Y-119252204D01*
X45170708Y-119185011D01*
X45162239Y-119116777D01*
X45157157Y-119047501D01*
X45155463Y-118977183D01*
X45160868Y-118842989D01*
X45177080Y-118711270D01*
X45189239Y-118646338D01*
X45204101Y-118582025D01*
X45241930Y-118455254D01*
X45290568Y-118330958D01*
X45350014Y-118209136D01*
X45420268Y-118089788D01*
X45501331Y-117972915D01*
X45593202Y-117858517D01*
X45695882Y-117746593D01*
X45809370Y-117637143D01*
X45933666Y-117530167D01*
X46068770Y-117425667D01*
X46214683Y-117323640D01*
X46371404Y-117224088D01*
X46538934Y-117127010D01*
X46715632Y-117032145D01*
X46899884Y-116943400D01*
X47091689Y-116860776D01*
X47291046Y-116784272D01*
X47497957Y-116713888D01*
X47712421Y-116649625D01*
X47934437Y-116591482D01*
X48164007Y-116539459D01*
X48401129Y-116493556D01*
X48645805Y-116453774D01*
X48898034Y-116420113D01*
X49157815Y-116392571D01*
X49425150Y-116371150D01*
X49700038Y-116355849D01*
X49982478Y-116346669D01*
X50272472Y-116343608D01*
X50592156Y-116347971D01*
G37*
D11*
G36*
X57376939Y-135265968D02*
G01*
X56971252Y-135265968D01*
X56971252Y-134988996D01*
X56929933Y-135080735D01*
X56876847Y-135154973D01*
X56811761Y-135214188D01*
X56735501Y-135257849D01*
X56648678Y-135284617D01*
X56548711Y-135293933D01*
X56440047Y-135283262D01*
X56345439Y-135252508D01*
X56262003Y-135202057D01*
X56187843Y-135130291D01*
X56129932Y-135045358D01*
X56087235Y-134945966D01*
X56060258Y-134829421D01*
X56050700Y-134692363D01*
X56050700Y-134314642D01*
X56470309Y-134314642D01*
X56470309Y-134678319D01*
X56478089Y-134756199D01*
X56499531Y-134817001D01*
X56533324Y-134864554D01*
X56579187Y-134900042D01*
X56637217Y-134922256D01*
X56711011Y-134930256D01*
X56788300Y-134921839D01*
X56848035Y-134898626D01*
X56894315Y-134861746D01*
X56927804Y-134812327D01*
X56949328Y-134747992D01*
X56957208Y-134664397D01*
X56957208Y-134328563D01*
X56949327Y-134245054D01*
X56927804Y-134180801D01*
X56894315Y-134131459D01*
X56848025Y-134094508D01*
X56788290Y-134071257D01*
X56711011Y-134062827D01*
X56637109Y-134070689D01*
X56579082Y-134092481D01*
X56533324Y-134127185D01*
X56499702Y-134173897D01*
X56478184Y-134234952D01*
X56470309Y-134314642D01*
X56050700Y-134314642D01*
X56050700Y-134300598D01*
X56060259Y-134163536D01*
X56087239Y-134047014D01*
X56129936Y-133947666D01*
X56187843Y-133862792D01*
X56262010Y-133790967D01*
X56345450Y-133740479D01*
X56440055Y-133709705D01*
X56548711Y-133699028D01*
X56648827Y-133708077D01*
X56735141Y-133733969D01*
X56810296Y-133775964D01*
X56874610Y-133833314D01*
X56927247Y-133905714D01*
X56968443Y-133995660D01*
X56957208Y-133643096D01*
X56957208Y-133223365D01*
X57376939Y-133223365D01*
X57376939Y-135265968D01*
G37*
G36*
X55446688Y-135769596D02*
G01*
X55236761Y-135190374D01*
X55815983Y-133726993D01*
X55379521Y-133726993D01*
X55130515Y-134398539D01*
X55073118Y-134572074D01*
X55047853Y-134669095D01*
X55032574Y-134756721D01*
X54996182Y-134572074D01*
X54943059Y-134398539D01*
X54710784Y-133726993D01*
X54271513Y-133726993D01*
X55007417Y-135769596D01*
X55446688Y-135769596D01*
G37*
G36*
X52344437Y-135265968D02*
G01*
X52344437Y-133223365D01*
X51924706Y-133223365D01*
X51924706Y-134023626D01*
X51728823Y-134023626D01*
X51387494Y-133223365D01*
X50934179Y-133223365D01*
X51359528Y-134188734D01*
X50917448Y-135265968D01*
X51376259Y-135265968D01*
X51726014Y-134390235D01*
X51924706Y-134390235D01*
X51924706Y-135265968D01*
X52344437Y-135265968D01*
G37*
G36*
X50139997Y-133708131D02*
G01*
X50258112Y-133734180D01*
X50362406Y-133775964D01*
X50457305Y-133834906D01*
X50535025Y-133906463D01*
X50597368Y-133991508D01*
X50642498Y-134086924D01*
X50670281Y-134193830D01*
X50679922Y-134314642D01*
X50679922Y-134678319D01*
X50670279Y-134799213D01*
X50642494Y-134906158D01*
X50597368Y-135001575D01*
X50535033Y-135086544D01*
X50457314Y-135158062D01*
X50362406Y-135216997D01*
X50258112Y-135258781D01*
X50139997Y-135284830D01*
X50005568Y-135293933D01*
X49843444Y-135279476D01*
X49703075Y-135238055D01*
X49580341Y-135170835D01*
X49499220Y-135103210D01*
X49436329Y-135027282D01*
X49389907Y-134942157D01*
X49359301Y-134846236D01*
X49770606Y-134846236D01*
X49794539Y-134893805D01*
X49849008Y-134930256D01*
X49919604Y-134950855D01*
X50005568Y-134958222D01*
X50094571Y-134949700D01*
X50161419Y-134926648D01*
X50211342Y-134891055D01*
X50247303Y-134841744D01*
X50270970Y-134772986D01*
X50279852Y-134678319D01*
X50279852Y-134600039D01*
X49336953Y-134600039D01*
X49336953Y-134314642D01*
X49337401Y-134309024D01*
X49737023Y-134309024D01*
X49737023Y-134345416D01*
X50279852Y-134351034D01*
X50279852Y-134314642D01*
X50271363Y-134221776D01*
X50247969Y-134148563D01*
X50211342Y-134090793D01*
X50160274Y-134047122D01*
X50093354Y-134019683D01*
X50005568Y-134009704D01*
X49917701Y-134019478D01*
X49851933Y-134046117D01*
X49802846Y-134088106D01*
X49767853Y-134143930D01*
X49745281Y-134216050D01*
X49737023Y-134309024D01*
X49337401Y-134309024D01*
X49346594Y-134193830D01*
X49374377Y-134086924D01*
X49419507Y-133991508D01*
X49481642Y-133906289D01*
X49558482Y-133834752D01*
X49651660Y-133775964D01*
X49754148Y-133734263D01*
X49871224Y-133708176D01*
X50005568Y-133699028D01*
X50139997Y-133708131D01*
G37*
G36*
X48590180Y-135265968D02*
G01*
X49102235Y-133726993D01*
X48668582Y-133726993D01*
X48399915Y-134591613D01*
X48353753Y-134753912D01*
X48327131Y-134910594D01*
X48302096Y-134753912D01*
X48260086Y-134594422D01*
X47997037Y-133726993D01*
X47557766Y-133726993D01*
X48064203Y-135265968D01*
X48590180Y-135265968D01*
G37*
G36*
X47295083Y-135265968D02*
G01*
X47295083Y-134888246D01*
X46785836Y-134888246D01*
X46785836Y-134104837D01*
X47239151Y-134104837D01*
X47239151Y-133726993D01*
X46366105Y-133726993D01*
X46366105Y-134888246D01*
X45924025Y-134888246D01*
X45924025Y-135265968D01*
X47295083Y-135265968D01*
G37*
G36*
X46595693Y-133483605D02*
G01*
X46670047Y-133476467D01*
X46730151Y-133456543D01*
X46778998Y-133424865D01*
X46816686Y-133381628D01*
X46839490Y-133329390D01*
X46847508Y-133265374D01*
X46839490Y-133201359D01*
X46816686Y-133149120D01*
X46778998Y-133105884D01*
X46730151Y-133074205D01*
X46670047Y-133054281D01*
X46595693Y-133047143D01*
X46521259Y-133054287D01*
X46461163Y-133074215D01*
X46412389Y-133105884D01*
X46374701Y-133149120D01*
X46351896Y-133201359D01*
X46343879Y-133265374D01*
X46351896Y-133329390D01*
X46374701Y-133381628D01*
X46412389Y-133424865D01*
X46461163Y-133456534D01*
X46521259Y-133476462D01*
X46595693Y-133483605D01*
G37*
G36*
X45627881Y-135265968D02*
G01*
X45627881Y-133726993D01*
X45222194Y-133726993D01*
X45222194Y-134006896D01*
X45190842Y-133918977D01*
X45143118Y-133845082D01*
X45078090Y-133783047D01*
X45000613Y-133737100D01*
X44911568Y-133708880D01*
X44808080Y-133699028D01*
X44698977Y-133709350D01*
X44604461Y-133738993D01*
X44521638Y-133787359D01*
X44448554Y-133855709D01*
X44390969Y-133937276D01*
X44348729Y-134032181D01*
X44322147Y-134142915D01*
X44312755Y-134272632D01*
X44312755Y-135265968D01*
X44732487Y-135265968D01*
X44732487Y-134314642D01*
X44740267Y-134236847D01*
X44761708Y-134176127D01*
X44795501Y-134128651D01*
X44841310Y-134092956D01*
X44898454Y-134070769D01*
X44970257Y-134062827D01*
X45042146Y-134070769D01*
X45099371Y-134092957D01*
X45145257Y-134128651D01*
X45178980Y-134176118D01*
X45200382Y-134236837D01*
X45208150Y-134314642D01*
X45208150Y-135265968D01*
X45627881Y-135265968D01*
G37*
G36*
X252116831Y-135271316D02*
G01*
X251711144Y-135271316D01*
X251711144Y-134994344D01*
X251669825Y-135086083D01*
X251616739Y-135160321D01*
X251551653Y-135219536D01*
X251475393Y-135263197D01*
X251388570Y-135289965D01*
X251288603Y-135299281D01*
X251179939Y-135288610D01*
X251085331Y-135257856D01*
X251001895Y-135207405D01*
X250927735Y-135135639D01*
X250869824Y-135050706D01*
X250827127Y-134951314D01*
X250800150Y-134834769D01*
X250790592Y-134697711D01*
X250790592Y-134319990D01*
X251210201Y-134319990D01*
X251210201Y-134683667D01*
X251217981Y-134761547D01*
X251239423Y-134822349D01*
X251273216Y-134869902D01*
X251319079Y-134905390D01*
X251377109Y-134927604D01*
X251450903Y-134935604D01*
X251528192Y-134927187D01*
X251587927Y-134903974D01*
X251634207Y-134867094D01*
X251667696Y-134817675D01*
X251689220Y-134753340D01*
X251697100Y-134669745D01*
X251697100Y-134333911D01*
X251689219Y-134250402D01*
X251667696Y-134186149D01*
X251634207Y-134136807D01*
X251587917Y-134099856D01*
X251528182Y-134076605D01*
X251450903Y-134068175D01*
X251377001Y-134076037D01*
X251318974Y-134097829D01*
X251273216Y-134132533D01*
X251239594Y-134179245D01*
X251218076Y-134240300D01*
X251210201Y-134319990D01*
X250790592Y-134319990D01*
X250790592Y-134305946D01*
X250800151Y-134168884D01*
X250827131Y-134052362D01*
X250869828Y-133953014D01*
X250927735Y-133868140D01*
X251001902Y-133796315D01*
X251085342Y-133745827D01*
X251179947Y-133715053D01*
X251288603Y-133704376D01*
X251388719Y-133713425D01*
X251475033Y-133739317D01*
X251550188Y-133781312D01*
X251614502Y-133838662D01*
X251667139Y-133911062D01*
X251708335Y-134001008D01*
X251697100Y-133648444D01*
X251697100Y-133228713D01*
X252116831Y-133228713D01*
X252116831Y-135271316D01*
G37*
G36*
X250186580Y-135774944D02*
G01*
X249976653Y-135195722D01*
X250555875Y-133732341D01*
X250119413Y-133732341D01*
X249870407Y-134403887D01*
X249813010Y-134577422D01*
X249787745Y-134674443D01*
X249772466Y-134762069D01*
X249736074Y-134577422D01*
X249682951Y-134403887D01*
X249450676Y-133732341D01*
X249011405Y-133732341D01*
X249747309Y-135774944D01*
X250186580Y-135774944D01*
G37*
G36*
X247084329Y-135271316D02*
G01*
X247084329Y-133228713D01*
X246664598Y-133228713D01*
X246664598Y-134028974D01*
X246468715Y-134028974D01*
X246127386Y-133228713D01*
X245674071Y-133228713D01*
X246099420Y-134194082D01*
X245657340Y-135271316D01*
X246116151Y-135271316D01*
X246465906Y-134395583D01*
X246664598Y-134395583D01*
X246664598Y-135271316D01*
X247084329Y-135271316D01*
G37*
G36*
X244879889Y-133713479D02*
G01*
X244998004Y-133739528D01*
X245102298Y-133781312D01*
X245197197Y-133840254D01*
X245274917Y-133911811D01*
X245337260Y-133996856D01*
X245382390Y-134092272D01*
X245410173Y-134199178D01*
X245419814Y-134319990D01*
X245419814Y-134683667D01*
X245410171Y-134804561D01*
X245382386Y-134911506D01*
X245337260Y-135006923D01*
X245274925Y-135091892D01*
X245197206Y-135163410D01*
X245102298Y-135222345D01*
X244998004Y-135264129D01*
X244879889Y-135290178D01*
X244745460Y-135299281D01*
X244583336Y-135284824D01*
X244442967Y-135243403D01*
X244320233Y-135176183D01*
X244239112Y-135108558D01*
X244176221Y-135032630D01*
X244129799Y-134947505D01*
X244099193Y-134851584D01*
X244510498Y-134851584D01*
X244534431Y-134899153D01*
X244588900Y-134935604D01*
X244659496Y-134956203D01*
X244745460Y-134963570D01*
X244834463Y-134955048D01*
X244901311Y-134931996D01*
X244951234Y-134896403D01*
X244987195Y-134847092D01*
X245010862Y-134778334D01*
X245019744Y-134683667D01*
X245019744Y-134605387D01*
X244076845Y-134605387D01*
X244076845Y-134319990D01*
X244077293Y-134314372D01*
X244476915Y-134314372D01*
X244476915Y-134350764D01*
X245019744Y-134356382D01*
X245019744Y-134319990D01*
X245011255Y-134227124D01*
X244987861Y-134153911D01*
X244951234Y-134096141D01*
X244900166Y-134052470D01*
X244833246Y-134025031D01*
X244745460Y-134015052D01*
X244657593Y-134024826D01*
X244591825Y-134051465D01*
X244542738Y-134093454D01*
X244507745Y-134149278D01*
X244485173Y-134221398D01*
X244476915Y-134314372D01*
X244077293Y-134314372D01*
X244086486Y-134199178D01*
X244114269Y-134092272D01*
X244159399Y-133996856D01*
X244221534Y-133911637D01*
X244298374Y-133840100D01*
X244391552Y-133781312D01*
X244494040Y-133739611D01*
X244611116Y-133713524D01*
X244745460Y-133704376D01*
X244879889Y-133713479D01*
G37*
G36*
X243330072Y-135271316D02*
G01*
X243842127Y-133732341D01*
X243408474Y-133732341D01*
X243139807Y-134596961D01*
X243093645Y-134759260D01*
X243067023Y-134915942D01*
X243041988Y-134759260D01*
X242999978Y-134599770D01*
X242736929Y-133732341D01*
X242297658Y-133732341D01*
X242804095Y-135271316D01*
X243330072Y-135271316D01*
G37*
G36*
X242034975Y-135271316D02*
G01*
X242034975Y-134893594D01*
X241525728Y-134893594D01*
X241525728Y-134110185D01*
X241979043Y-134110185D01*
X241979043Y-133732341D01*
X241105997Y-133732341D01*
X241105997Y-134893594D01*
X240663917Y-134893594D01*
X240663917Y-135271316D01*
X242034975Y-135271316D01*
G37*
G36*
X241335585Y-133488953D02*
G01*
X241409939Y-133481815D01*
X241470043Y-133461891D01*
X241518890Y-133430213D01*
X241556578Y-133386976D01*
X241579382Y-133334738D01*
X241587400Y-133270722D01*
X241579382Y-133206707D01*
X241556578Y-133154468D01*
X241518890Y-133111232D01*
X241470043Y-133079553D01*
X241409939Y-133059629D01*
X241335585Y-133052491D01*
X241261151Y-133059635D01*
X241201055Y-133079563D01*
X241152281Y-133111232D01*
X241114593Y-133154468D01*
X241091788Y-133206707D01*
X241083771Y-133270722D01*
X241091788Y-133334738D01*
X241114593Y-133386976D01*
X241152281Y-133430213D01*
X241201055Y-133461882D01*
X241261151Y-133481810D01*
X241335585Y-133488953D01*
G37*
G36*
X240367773Y-135271316D02*
G01*
X240367773Y-133732341D01*
X239962086Y-133732341D01*
X239962086Y-134012244D01*
X239930734Y-133924325D01*
X239883010Y-133850430D01*
X239817982Y-133788395D01*
X239740505Y-133742448D01*
X239651460Y-133714228D01*
X239547972Y-133704376D01*
X239438869Y-133714698D01*
X239344353Y-133744341D01*
X239261530Y-133792707D01*
X239188446Y-133861057D01*
X239130861Y-133942624D01*
X239088621Y-134037529D01*
X239062039Y-134148263D01*
X239052647Y-134277980D01*
X239052647Y-135271316D01*
X239472379Y-135271316D01*
X239472379Y-134319990D01*
X239480159Y-134242195D01*
X239501600Y-134181475D01*
X239535393Y-134133999D01*
X239581202Y-134098304D01*
X239638346Y-134076117D01*
X239710149Y-134068175D01*
X239782038Y-134076117D01*
X239839263Y-134098305D01*
X239885149Y-134133999D01*
X239918872Y-134181466D01*
X239940274Y-134242185D01*
X239948042Y-134319990D01*
X239948042Y-135271316D01*
X240367773Y-135271316D01*
G37*
M02*
